<svg width="55" height="55" viewBox="0 0 55 55" fill="none" xmlns="http://www.w3.org/2000/svg">
<rect x="0.769531" y="0.0546875" width="53.9785" height="53.9785" rx="26.9893" fill="#232323"/>
<mask id="mask0_50_8677" style="mask-type:alpha" maskUnits="userSpaceOnUse" x="16" y="15" width="24" height="24">
<rect x="16" y="15" width="24" height="24" fill="white"/>
</mask>
<g mask="url(#mask0_50_8677)">
<path d="M21 35V33H35V35H21ZM21 31.5L19.725 23.475C19.6917 23.475 19.6542 23.4792 19.6125 23.4875C19.5708 23.4958 19.5333 23.5 19.5 23.5C19.0833 23.5 18.7292 23.3542 18.4375 23.0625C18.1458 22.7708 18 22.4167 18 22C18 21.5833 18.1458 21.2292 18.4375 20.9375C18.7292 20.6458 19.0833 20.5 19.5 20.5C19.9167 20.5 20.2708 20.6458 20.5625 20.9375C20.8542 21.2292 21 21.5833 21 22C21 22.1167 20.9875 22.225 20.9625 22.325C20.9375 22.425 20.9083 22.5167 20.875 22.6L24 24L27.125 19.725C26.9417 19.5917 26.7917 19.4167 26.675 19.2C26.5583 18.9833 26.5 18.75 26.5 18.5C26.5 18.0833 26.6458 17.7292 26.9375 17.4375C27.2292 17.1458 27.5833 17 28 17C28.4167 17 28.7708 17.1458 29.0625 17.4375C29.3542 17.7292 29.5 18.0833 29.5 18.5C29.5 18.75 29.4417 18.9833 29.325 19.2C29.2083 19.4167 29.0583 19.5917 28.875 19.725L32 24L35.125 22.6C35.0917 22.5167 35.0625 22.425 35.0375 22.325C35.0125 22.225 35 22.1167 35 22C35 21.5833 35.1458 21.2292 35.4375 20.9375C35.7292 20.6458 36.0833 20.5 36.5 20.5C36.9167 20.5 37.2708 20.6458 37.5625 20.9375C37.8542 21.2292 38 21.5833 38 22C38 22.4167 37.8542 22.7708 37.5625 23.0625C37.2708 23.3542 36.9167 23.5 36.5 23.5C36.4667 23.5 36.4292 23.4958 36.3875 23.4875C36.3458 23.4792 36.3083 23.475 36.275 23.475L35 31.5H21ZM22.7 29.5H33.3L33.95 25.325L31.325 26.475L28 21.9L24.675 26.475L22.05 25.325L22.7 29.5Z" fill="white"/>
</g>
</svg>
