<svg width="54" height="55" viewBox="0 0 54 55" fill="none" xmlns="http://www.w3.org/2000/svg">
<rect y="0.0546875" width="53.9785" height="53.9785" rx="26.9893" fill="#232323"/>
<mask id="mask0_50_8662" style="mask-type:alpha" maskUnits="userSpaceOnUse" x="15" y="15" width="24" height="24">
<rect x="15" y="15" width="24" height="24" fill="white"/>
</mask>
<g mask="url(#mask0_50_8662)">
<path d="M21 35C20.45 35 19.9792 34.8042 19.5875 34.4125C19.1958 34.0208 19 33.55 19 33C19 32.45 19.1958 31.9792 19.5875 31.5875C19.9792 31.1958 20.45 31 21 31C21.55 31 22.0208 31.1958 22.4125 31.5875C22.8042 31.9792 23 32.45 23 33C23 33.55 22.8042 34.0208 22.4125 34.4125C22.0208 34.8042 21.55 35 21 35ZM27 35C26.45 35 25.9792 34.8042 25.5875 34.4125C25.1958 34.0208 25 33.55 25 33C25 32.45 25.1958 31.9792 25.5875 31.5875C25.9792 31.1958 26.45 31 27 31C27.55 31 28.0208 31.1958 28.4125 31.5875C28.8042 31.9792 29 32.45 29 33C29 33.55 28.8042 34.0208 28.4125 34.4125C28.0208 34.8042 27.55 35 27 35ZM33 35C32.45 35 31.9792 34.8042 31.5875 34.4125C31.1958 34.0208 31 33.55 31 33C31 32.45 31.1958 31.9792 31.5875 31.5875C31.9792 31.1958 32.45 31 33 31C33.55 31 34.0208 31.1958 34.4125 31.5875C34.8042 31.9792 35 32.45 35 33C35 33.55 34.8042 34.0208 34.4125 34.4125C34.0208 34.8042 33.55 35 33 35ZM21 29C20.45 29 19.9792 28.8042 19.5875 28.4125C19.1958 28.0208 19 27.55 19 27C19 26.45 19.1958 25.9792 19.5875 25.5875C19.9792 25.1958 20.45 25 21 25C21.55 25 22.0208 25.1958 22.4125 25.5875C22.8042 25.9792 23 26.45 23 27C23 27.55 22.8042 28.0208 22.4125 28.4125C22.0208 28.8042 21.55 29 21 29ZM27 29C26.45 29 25.9792 28.8042 25.5875 28.4125C25.1958 28.0208 25 27.55 25 27C25 26.45 25.1958 25.9792 25.5875 25.5875C25.9792 25.1958 26.45 25 27 25C27.55 25 28.0208 25.1958 28.4125 25.5875C28.8042 25.9792 29 26.45 29 27C29 27.55 28.8042 28.0208 28.4125 28.4125C28.0208 28.8042 27.55 29 27 29ZM33 29C32.45 29 31.9792 28.8042 31.5875 28.4125C31.1958 28.0208 31 27.55 31 27C31 26.45 31.1958 25.9792 31.5875 25.5875C31.9792 25.1958 32.45 25 33 25C33.55 25 34.0208 25.1958 34.4125 25.5875C34.8042 25.9792 35 26.45 35 27C35 27.55 34.8042 28.0208 34.4125 28.4125C34.0208 28.8042 33.55 29 33 29ZM21 23C20.45 23 19.9792 22.8042 19.5875 22.4125C19.1958 22.0208 19 21.55 19 21C19 20.45 19.1958 19.9792 19.5875 19.5875C19.9792 19.1958 20.45 19 21 19C21.55 19 22.0208 19.1958 22.4125 19.5875C22.8042 19.9792 23 20.45 23 21C23 21.55 22.8042 22.0208 22.4125 22.4125C22.0208 22.8042 21.55 23 21 23ZM27 23C26.45 23 25.9792 22.8042 25.5875 22.4125C25.1958 22.0208 25 21.55 25 21C25 20.45 25.1958 19.9792 25.5875 19.5875C25.9792 19.1958 26.45 19 27 19C27.55 19 28.0208 19.1958 28.4125 19.5875C28.8042 19.9792 29 20.45 29 21C29 21.55 28.8042 22.0208 28.4125 22.4125C28.0208 22.8042 27.55 23 27 23ZM33 23C32.45 23 31.9792 22.8042 31.5875 22.4125C31.1958 22.0208 31 21.55 31 21C31 20.45 31.1958 19.9792 31.5875 19.5875C31.9792 19.1958 32.45 19 33 19C33.55 19 34.0208 19.1958 34.4125 19.5875C34.8042 19.9792 35 20.45 35 21C35 21.55 34.8042 22.0208 34.4125 22.4125C34.0208 22.8042 33.55 23 33 23Z" fill="white"/>
</g>
</svg>
