<svg width="14" height="14" viewBox="0 0 14 14" fill="none" xmlns="http://www.w3.org/2000/svg">
<mask id="mask0_150_4067" style="mask-type:alpha" maskUnits="userSpaceOnUse" x="0" y="0" width="14" height="14">
<rect width="14" height="14" fill="#D9D9D9"/>
</mask>
<g mask="url(#mask0_150_4067)">
<path d="M3.15039 12.5984C2.66428 12.5984 2.25109 12.4283 1.91081 12.088C1.57053 11.7477 1.40039 11.3345 1.40039 10.8484C1.40039 10.4693 1.51706 10.129 1.75039 9.8276C1.98372 9.52622 2.27539 9.30747 2.62539 9.17135V4.79635C2.27539 4.66024 1.98372 4.44392 1.75039 4.1474C1.51706 3.85087 1.40039 3.51788 1.40039 3.14844C1.40039 2.6526 1.57053 2.23698 1.91081 1.90156C2.25109 1.56615 2.66428 1.39844 3.15039 1.39844C3.52956 1.39844 3.8674 1.51267 4.16393 1.74115C4.46046 1.96962 4.67678 2.26372 4.81289 2.62344H9.20247C9.32886 2.25399 9.54275 1.95747 9.84414 1.73385C10.1455 1.51024 10.4809 1.39844 10.8504 1.39844C11.3462 1.39844 11.7618 1.56615 12.0973 1.90156C12.4327 2.23698 12.6004 2.6526 12.6004 3.14844C12.6004 3.51788 12.4886 3.8533 12.265 4.15469C12.0414 4.45608 11.7448 4.66997 11.3754 4.79635V9.18594C11.7351 9.32205 12.0292 9.53837 12.2577 9.8349C12.4862 10.1314 12.6004 10.4693 12.6004 10.8484C12.6004 11.3345 12.4327 11.7477 12.0973 12.088C11.7618 12.4283 11.3462 12.5984 10.8504 12.5984C10.4809 12.5984 10.1455 12.4818 9.84414 12.2484C9.54275 12.0151 9.324 11.7234 9.18789 11.3734H4.81289C4.67678 11.7234 4.46046 12.0151 4.16393 12.2484C3.8674 12.4818 3.52956 12.5984 3.15039 12.5984ZM3.15039 3.84844C3.34872 3.84844 3.51497 3.78135 3.64914 3.64719C3.78331 3.51302 3.85039 3.34677 3.85039 3.14844C3.85039 2.9501 3.78331 2.78385 3.64914 2.64969C3.51497 2.51552 3.34872 2.44844 3.15039 2.44844C2.95206 2.44844 2.78581 2.51552 2.65164 2.64969C2.51747 2.78385 2.45039 2.9501 2.45039 3.14844C2.45039 3.34677 2.51747 3.51302 2.65164 3.64719C2.78581 3.78135 2.95206 3.84844 3.15039 3.84844ZM10.8504 3.84844C11.0487 3.84844 11.215 3.78135 11.3491 3.64719C11.4833 3.51302 11.5504 3.34677 11.5504 3.14844C11.5504 2.9501 11.4833 2.78385 11.3491 2.64969C11.215 2.51552 11.0487 2.44844 10.8504 2.44844C10.6521 2.44844 10.4858 2.51552 10.3516 2.64969C10.2175 2.78385 10.1504 2.9501 10.1504 3.14844C10.1504 3.34677 10.2175 3.51302 10.3516 3.64719C10.4858 3.78135 10.6521 3.84844 10.8504 3.84844ZM4.81289 10.3234H9.20247C9.29552 10.0509 9.44033 9.81506 9.63691 9.61585C9.8334 9.41674 10.0629 9.26858 10.3254 9.17135V4.79635C10.0629 4.69913 9.8314 4.55383 9.63093 4.36046C9.43056 4.16708 9.28288 3.93808 9.18789 3.67344H4.81289C4.71985 3.93808 4.57504 4.16708 4.37845 4.36046C4.18197 4.55383 3.94761 4.69913 3.67539 4.79635V9.18594C3.94547 9.27947 4.1792 9.42491 4.37656 9.62227C4.57392 9.81963 4.71936 10.0534 4.81289 10.3234ZM10.8504 11.5484C11.0487 11.5484 11.215 11.4814 11.3491 11.3472C11.4833 11.213 11.5504 11.0468 11.5504 10.8484C11.5504 10.6501 11.4833 10.4839 11.3491 10.3497C11.215 10.2155 11.0487 10.1484 10.8504 10.1484C10.6521 10.1484 10.4858 10.2155 10.3516 10.3497C10.2175 10.4839 10.1504 10.6501 10.1504 10.8484C10.1504 11.0468 10.2175 11.213 10.3516 11.3472C10.4858 11.4814 10.6521 11.5484 10.8504 11.5484ZM3.15039 11.5484C3.34872 11.5484 3.51497 11.4814 3.64914 11.3472C3.78331 11.213 3.85039 11.0468 3.85039 10.8484C3.85039 10.6501 3.78331 10.4839 3.64914 10.3497C3.51497 10.2155 3.34872 10.1484 3.15039 10.1484C2.95206 10.1484 2.78581 10.2155 2.65164 10.3497C2.51747 10.4839 2.45039 10.6501 2.45039 10.8484C2.45039 11.0468 2.51747 11.213 2.65164 11.3472C2.78581 11.4814 2.95206 11.5484 3.15039 11.5484Z" fill="#1C1B1F"/>
</g>
</svg>
