<svg width="54" height="55" viewBox="0 0 54 55" fill="none" xmlns="http://www.w3.org/2000/svg">
<rect y="0.0546875" width="53.9785" height="53.9785" rx="26.9893" fill="#232323"/>
<mask id="mask0_50_8376" style="mask-type:alpha" maskUnits="userSpaceOnUse" x="15" y="15" width="24" height="24">
<rect x="15" y="15" width="24" height="24" fill="#D9D9D9"/>
</mask>
<g mask="url(#mask0_50_8376)">
<path d="M21 37C20.1667 37 19.4583 36.7083 18.875 36.125C18.2917 35.5417 18 34.8333 18 34V31H21V17H36V34C36 34.8333 35.7083 35.5417 35.125 36.125C34.5417 36.7083 33.8333 37 33 37H21ZM33 35C33.2833 35 33.5208 34.9042 33.7125 34.7125C33.9042 34.5208 34 34.2833 34 34V19H23V31H32V34C32 34.2833 32.0958 34.5208 32.2875 34.7125C32.4792 34.9042 32.7167 35 33 35ZM24 24V22H33V24H24ZM24 27V25H33V27H24ZM21 35H30V33H20V34C20 34.2833 20.0958 34.5208 20.2875 34.7125C20.4792 34.9042 20.7167 35 21 35ZM21 35H20H30H21Z" fill="white"/>
</g>
</svg>
