<svg width="55" height="55" viewBox="0 0 55 55" fill="none" xmlns="http://www.w3.org/2000/svg">
<rect x="0.769531" y="0.0546875" width="53.9785" height="53.9785" rx="26.9893" fill="#232323"/>
<mask id="mask0_50_8652" style="mask-type:alpha" maskUnits="userSpaceOnUse" x="16" y="15" width="24" height="24">
<rect x="16" y="15" width="24" height="24" fill="white"/>
</mask>
<g mask="url(#mask0_50_8652)">
<path d="M27.0242 36V33.85C26.1409 33.65 25.3784 33.2667 24.7367 32.7C24.0951 32.1333 23.6242 31.3333 23.3242 30.3L25.1742 29.55C25.4242 30.35 25.7951 30.9583 26.2867 31.375C26.7784 31.7917 27.4242 32 28.2242 32C28.9076 32 29.4867 31.8458 29.9617 31.5375C30.4367 31.2292 30.6742 30.75 30.6742 30.1C30.6742 29.5167 30.4909 29.0542 30.1242 28.7125C29.7576 28.3708 28.9076 27.9833 27.5742 27.55C26.1409 27.1 25.1576 26.5625 24.6242 25.9375C24.0909 25.3125 23.8242 24.55 23.8242 23.65C23.8242 22.5667 24.1742 21.725 24.8742 21.125C25.5742 20.525 26.2909 20.1833 27.0242 20.1V18H29.0242V20.1C29.8576 20.2333 30.5451 20.5375 31.0867 21.0125C31.6284 21.4875 32.0242 22.0667 32.2742 22.75L30.4242 23.55C30.2242 23.0167 29.9409 22.6167 29.5742 22.35C29.2076 22.0833 28.7076 21.95 28.0742 21.95C27.3409 21.95 26.7826 22.1125 26.3992 22.4375C26.0159 22.7625 25.8242 23.1667 25.8242 23.65C25.8242 24.2 26.0742 24.6333 26.5742 24.95C27.0742 25.2667 27.9409 25.6 29.1742 25.95C30.3242 26.2833 31.1951 26.8125 31.7867 27.5375C32.3784 28.2625 32.6742 29.1 32.6742 30.05C32.6742 31.2333 32.3242 32.1333 31.6242 32.75C30.9242 33.3667 30.0576 33.75 29.0242 33.9V36H27.0242Z" fill="white"/>
</g>
</svg>
