<svg width="54" height="55" viewBox="0 0 54 55" fill="none" xmlns="http://www.w3.org/2000/svg">
<rect y="0.0546875" width="53.9785" height="53.9785" rx="26.9893" fill="#232323"/>
<mask id="mask0_50_8672" style="mask-type:alpha" maskUnits="userSpaceOnUse" x="15" y="15" width="24" height="24">
<rect x="15" y="15" width="24" height="24" fill="white"/>
</mask>
<g mask="url(#mask0_50_8672)">
<path d="M27.0008 26.0008C26.1674 26.0008 25.4591 25.7091 24.8758 25.1258C24.2924 24.5424 24.0008 23.8341 24.0008 23.0008C24.0008 22.1674 24.2924 21.4591 24.8758 20.8758C25.4591 20.2924 26.1674 20.0008 27.0008 20.0008C27.8341 20.0008 28.5424 20.2924 29.1258 20.8758C29.7091 21.4591 30.0008 22.1674 30.0008 23.0008C30.0008 23.8341 29.7091 24.5424 29.1258 25.1258C28.5424 25.7091 27.8341 26.0008 27.0008 26.0008ZM27.0008 24.0008C27.2841 24.0008 27.5216 23.9049 27.7133 23.7133C27.9049 23.5216 28.0008 23.2841 28.0008 23.0008C28.0008 22.7174 27.9049 22.4799 27.7133 22.2883C27.5216 22.0966 27.2841 22.0008 27.0008 22.0008C26.7174 22.0008 26.4799 22.0966 26.2883 22.2883C26.0966 22.4799 26.0008 22.7174 26.0008 23.0008C26.0008 23.2841 26.0966 23.5216 26.2883 23.7133C26.4799 23.9049 26.7174 24.0008 27.0008 24.0008ZM21.0008 32.0008V30.1008C21.0008 29.7508 21.0883 29.4216 21.2633 29.1133C21.4383 28.8049 21.6758 28.5591 21.9758 28.3758C22.7258 27.9424 23.5174 27.6049 24.3508 27.3633C25.1841 27.1216 26.0674 27.0008 27.0008 27.0008C27.9341 27.0008 28.8174 27.1216 29.6508 27.3633C30.4841 27.6049 31.2758 27.9424 32.0258 28.3758C32.3258 28.5591 32.5633 28.8049 32.7383 29.1133C32.9133 29.4216 33.0008 29.7508 33.0008 30.1008V32.0008H21.0008ZM27.0008 29.0008C26.3174 29.0008 25.6508 29.0841 25.0008 29.2508C24.3508 29.4174 23.7341 29.6674 23.1508 30.0008H30.8508C30.2674 29.6674 29.6508 29.4174 29.0008 29.2508C28.3508 29.0841 27.6841 29.0008 27.0008 29.0008ZM36.2258 23.1508C35.7091 21.9341 34.9883 20.8633 34.0633 19.9383C33.1383 19.0133 32.0674 18.2924 30.8508 17.7758L31.6258 15.9258C33.0924 16.5258 34.3799 17.3841 35.4883 18.5008C36.5966 19.6174 37.4591 20.9091 38.0758 22.3758L36.2258 23.1508ZM17.7758 23.1508L15.9258 22.3758C16.5424 20.9091 17.4049 19.6216 18.5133 18.5133C19.6216 17.4049 20.9091 16.5424 22.3758 15.9258L23.1508 17.7758C21.9341 18.2924 20.8633 19.0133 19.9383 19.9383C19.0133 20.8633 18.2924 21.9341 17.7758 23.1508ZM22.3758 38.0758C20.9091 37.4758 19.6216 36.6174 18.5133 35.5008C17.4049 34.3841 16.5424 33.0924 15.9258 31.6258L17.7758 30.8508C18.2924 32.0674 19.0133 33.1383 19.9383 34.0633C20.8633 34.9883 21.9341 35.7091 23.1508 36.2258L22.3758 38.0758ZM31.6258 38.0758L30.8508 36.2258C32.0674 35.7091 33.1383 34.9883 34.0633 34.0633C34.9883 33.1383 35.7091 32.0674 36.2258 30.8508L38.0758 31.6258C37.4758 33.0924 36.6174 34.3799 35.5008 35.4883C34.3841 36.5966 33.0924 37.4591 31.6258 38.0758Z" fill="white"/>
</g>
</svg>
