<svg width="23" height="23" viewBox="0 0 23 23" fill="none" xmlns="http://www.w3.org/2000/svg">
<mask id="mask0_340_22044" style="mask-type:alpha" maskUnits="userSpaceOnUse" x="0" y="0" width="23" height="23">
<rect width="22.8382" height="22.8382" fill="#D9D9D9"/>
</mask>
<g mask="url(#mask0_340_22044)">
<path d="M8.56349 13.3213V6.66016H17.1278C18.1746 6.66016 19.0707 7.03286 19.8161 7.77828C20.5615 8.52369 20.9342 9.41977 20.9342 10.4665V13.3213H8.56349ZM1.90234 16.1761V14.2729H20.9342V16.1761H1.90234ZM4.75712 13.3213C3.96413 13.3213 3.29008 13.0438 2.73499 12.4887C2.17989 11.9336 1.90234 11.2595 1.90234 10.4665C1.90234 9.67353 2.17989 8.99949 2.73499 8.44439C3.29008 7.8893 3.96413 7.61175 4.75712 7.61175C5.55011 7.61175 6.22416 7.8893 6.77925 8.44439C7.33435 8.99949 7.6119 9.67353 7.6119 10.4665C7.6119 11.2595 7.33435 11.9336 6.77925 12.4887C6.22416 13.0438 5.55011 13.3213 4.75712 13.3213ZM4.75712 11.4181C5.02674 11.4181 5.25274 11.3269 5.43513 11.1445C5.61752 10.9621 5.70871 10.7361 5.70871 10.4665C5.70871 10.1969 5.61752 9.9709 5.43513 9.78852C5.25274 9.60613 5.02674 9.51493 4.75712 9.51493C4.4875 9.51493 4.2615 9.60613 4.07911 9.78852C3.89672 9.9709 3.80553 10.1969 3.80553 10.4665C3.80553 10.7361 3.89672 10.9621 4.07911 11.1445C4.2615 11.3269 4.4875 11.4181 4.75712 11.4181ZM10.4667 11.4181H19.031V10.4665C19.031 9.94315 18.8447 9.49511 18.4719 9.1224C18.0992 8.74969 17.6512 8.56334 17.1278 8.56334H10.4667V11.4181Z" fill="#FD3995"/>
</g>
</svg>
