<svg width="46" height="47" viewBox="0 0 46 47" fill="none" xmlns="http://www.w3.org/2000/svg">
<mask id="mask0_49_1665" style="mask-type:alpha" maskUnits="userSpaceOnUse" x="0" y="0" width="46" height="47">
<rect y="0.746094" width="45.5067" height="45.5067" fill="#F26522"/>
</mask>
<g mask="url(#mask0_49_1665)">
<path d="M5.68848 40.5636V14.018H13.2729V6.43359H32.2341V21.6025H39.8185V40.5636H24.6496V32.9792H20.8574V40.5636H5.68848ZM9.4807 36.7714H13.2729V32.9792H9.4807V36.7714ZM9.4807 29.1869H13.2729V25.3947H9.4807V29.1869ZM9.4807 21.6025H13.2729V17.8103H9.4807V21.6025ZM17.0652 29.1869H20.8574V25.3947H17.0652V29.1869ZM17.0652 21.6025H20.8574V17.8103H17.0652V21.6025ZM17.0652 14.018H20.8574V10.2258H17.0652V14.018ZM24.6496 29.1869H28.4418V25.3947H24.6496V29.1869ZM24.6496 21.6025H28.4418V17.8103H24.6496V21.6025ZM24.6496 14.018H28.4418V10.2258H24.6496V14.018ZM32.2341 36.7714H36.0263V32.9792H32.2341V36.7714ZM32.2341 29.1869H36.0263V25.3947H32.2341V29.1869Z" fill="#F26522"/>
</g>
</svg>
