<svg width="13" height="13" viewBox="0 0 13 13" fill="none" xmlns="http://www.w3.org/2000/svg">
<path d="M4.725 8.05V4.55H5.775V8.05H4.725ZM6.825 8.05V4.55H7.875V8.05H6.825ZM6.3 12.5708C5.24028 12.5708 4.25104 12.3181 3.33229 11.8125C2.41354 11.3069 1.65278 10.6167 1.05 9.74167V11.3458H0V8.02083H3.325V9.07083H1.88125C2.37708 9.82917 3.01146 10.4271 3.78437 10.8646C4.55729 11.3021 5.39583 11.5208 6.3 11.5208C7.42778 11.5208 8.44375 11.1927 9.34792 10.5365C10.2521 9.88021 10.8938 9.02222 11.2729 7.9625L12.2937 8.19583C11.8757 9.50833 11.1174 10.5656 10.0188 11.3677C8.92014 12.1698 7.68056 12.5708 6.3 12.5708ZM0.0291667 5.74583C0.0875 5.09445 0.238194 4.46736 0.48125 3.86458C0.724306 3.26181 1.06458 2.7125 1.50208 2.21667L2.24583 2.96042C1.925 3.36875 1.6625 3.80625 1.45833 4.27292C1.25417 4.73958 1.12778 5.23056 1.07917 5.74583H0.0291667ZM2.975 2.21667L2.24583 1.47292C2.74167 1.03542 3.29097 0.692708 3.89375 0.444792C4.49653 0.196875 5.12361 0.0486111 5.775 0V1.05C5.25972 1.10833 4.76632 1.23958 4.29479 1.44375C3.82326 1.64792 3.38333 1.90556 2.975 2.21667ZM9.625 2.21667C9.21667 1.89583 8.77674 1.63576 8.30521 1.43646C7.83368 1.23715 7.34028 1.10833 6.825 1.05V0C7.48611 0.0486111 8.11806 0.194444 8.72083 0.4375C9.32361 0.680556 9.87292 1.02083 10.3687 1.45833L9.625 2.21667ZM11.5208 5.74583C11.4625 5.23056 11.3337 4.73958 11.1344 4.27292C10.9351 3.80625 10.675 3.36875 10.3542 2.96042L11.1125 2.20208C11.5403 2.69792 11.8806 3.24722 12.1333 3.85C12.3861 4.45278 12.5368 5.08472 12.5854 5.74583H11.5208Z" fill="#1C1B1F"/>
</svg>
