<svg width="12" height="10" viewBox="0 0 12 10" fill="none" xmlns="http://www.w3.org/2000/svg">
<path d="M2.23606 5.52621H7.69592L8.74592 4.47621H2.23606V5.52621ZM2.23606 3.45756H5.73606V2.40756H2.23606V3.45756ZM1.21042 1.21042V6.72321H6.49877L5.28835 7.93362H0V0H11.4371V2.99877H10.2267V1.21042H1.21042ZM11.712 4.64115C11.7691 4.69841 11.7976 4.76588 11.7976 4.84356C11.7976 4.92115 11.7663 4.99124 11.7037 5.05385L11.2621 5.51352L10.2318 4.48321L10.6734 4.0234C10.7338 3.96088 10.8046 3.92962 10.8859 3.92962C10.9671 3.92962 11.0378 3.96088 11.0982 4.0234L11.712 4.64115ZM6.39071 9.35112V8.31892L9.91156 4.79981L10.9454 5.83027L7.42627 9.35112H6.39071Z" fill="#1C1B1F"/>
</svg>
