<svg width="43" height="43" viewBox="0 0 43 43" fill="none" xmlns="http://www.w3.org/2000/svg">
<path d="M13.166 34.1307H9.77755C4.58916 33.7601 2.25977 29.7717 2.25977 26.2246C2.25977 22.6774 4.58918 18.6714 9.68933 18.3185C10.4129 18.2479 11.0482 18.8126 11.1011 19.5538C11.1541 20.2773 10.6071 20.9127 9.86588 20.9656C6.44224 21.2127 4.90691 23.7892 4.90691 26.2422C4.90691 28.6952 6.44224 31.2718 9.86588 31.5189H13.166C13.8895 31.5189 14.4895 32.1189 14.4895 32.8424C14.4895 33.566 13.8895 34.1307 13.166 34.1307Z" fill="#292D32"/>
<path d="M29.4193 34.1314C29.384 34.1314 29.3664 34.1314 29.3311 34.1314C28.6075 34.1314 27.9369 33.5314 27.9369 32.8078C27.9369 32.049 28.5016 31.4843 29.2428 31.4843C31.4135 31.4843 33.3547 30.7254 34.8724 29.3665C37.6255 26.9665 37.8019 23.5075 37.0607 21.0722C36.3195 18.6545 34.2547 15.8838 30.6546 15.4426C30.0723 15.372 29.6134 14.9308 29.5075 14.3484C28.8016 10.113 26.5251 7.18352 23.0662 6.12466C19.5014 5.01286 15.3365 6.10701 12.7423 8.82474C10.2187 11.4542 9.63631 15.1426 11.1011 19.2015C11.3481 19.8898 10.9953 20.6486 10.307 20.8957C9.61875 21.1428 8.85987 20.7898 8.6128 20.1016C6.83039 15.1249 7.6422 10.3601 10.8364 7.00704C14.1012 3.58341 19.3425 2.22453 23.8427 3.60104C27.9722 4.87167 30.884 8.27766 31.9429 13.0072C35.543 13.819 38.4372 16.5544 39.5843 20.331C40.8373 24.4429 39.7079 28.6783 36.6195 31.3607C34.6606 33.1255 32.1017 34.1314 29.4193 34.1314Z" fill="#292D32"/>
<path d="M21.1767 39.3182C17.6295 39.3182 14.3118 37.4299 12.4941 34.3768C12.3 34.0768 12.1058 33.7239 11.947 33.3356C11.347 32.0827 11.0293 30.6532 11.0293 29.1708C11.0293 23.5765 15.5824 19.0234 21.1767 19.0234C26.771 19.0234 31.324 23.5765 31.324 29.1708C31.324 30.6709 31.0064 32.0827 30.3711 33.3886C30.2299 33.7239 30.0358 34.0768 29.824 34.4121C28.0416 37.4299 24.7238 39.3182 21.1767 39.3182ZM21.1767 21.6706C17.0471 21.6706 13.6764 25.0413 13.6764 29.1708C13.6764 30.265 13.9059 31.2885 14.3471 32.2238C14.4882 32.5238 14.6117 32.7709 14.7529 33.0003C16.0941 35.2769 18.5472 36.671 21.159 36.671C23.7708 36.671 26.2239 35.2769 27.5474 33.0356C27.7063 32.7709 27.8475 32.5238 27.9534 32.2768C28.4299 31.3062 28.6592 30.2826 28.6592 29.1884C28.6769 25.0413 25.3062 21.6706 21.1767 21.6706Z" fill="#292D32"/>
<path d="M20.1718 32.2434C19.8365 32.2434 19.5012 32.1199 19.2365 31.8551L17.4893 30.108C16.9775 29.5962 16.9775 28.7492 17.4893 28.2374C18.0011 27.7256 18.8482 27.7256 19.3599 28.2374L20.2071 29.0845L23.0307 26.4726C23.5778 25.9785 24.4072 26.0138 24.9013 26.5432C25.3955 27.0726 25.3602 27.9197 24.8308 28.4139L21.0718 31.8904C20.8071 32.1199 20.4894 32.2434 20.1718 32.2434Z" fill="#292D32"/>
</svg>
