<svg width="12" height="10" viewBox="0 0 12 10" fill="none" xmlns="http://www.w3.org/2000/svg">
<path d="M1.05 7.35V3.15V3.29583V1.05V7.35ZM1.05 2.1H10.15V1.05H1.05V2.1ZM5.49792 8.4H1.05C0.768056 8.4 0.522569 8.29549 0.313542 8.08646C0.104514 7.87743 0 7.63194 0 7.35V1.05C0 0.768056 0.104514 0.522569 0.313542 0.313542C0.522569 0.104514 0.768056 0 1.05 0H10.15C10.4388 0 10.6859 0.104514 10.8916 0.313542C11.0972 0.522569 11.2 0.76966 11.2 1.05481V3.77708C10.8889 3.57292 10.551 3.41736 10.1865 3.31042C9.82188 3.20347 9.45486 3.15 9.08542 3.15C8.58958 3.15 8.11563 3.23993 7.66354 3.41979C7.21146 3.59965 6.80556 3.85972 6.44583 4.2H1.05V7.35H5.25C5.26944 7.53404 5.29861 7.71376 5.3375 7.88915C5.37639 8.06444 5.42986 8.23472 5.49792 8.4ZM9.87292 8.29792L10.3687 7.80208L9.42083 6.85417V5.6H8.72083V7.14583L9.87292 8.29792ZM9.07083 9.8C8.29481 9.8 7.63656 9.52899 7.09611 8.98698C6.55565 8.44487 6.28542 7.78133 6.28542 6.99635C6.28542 6.21128 6.55565 5.54653 7.09611 5.00208C7.63656 4.45764 8.29481 4.18542 9.07083 4.18542C9.85746 4.18542 10.5257 4.45764 11.0755 5.00208C11.6252 5.54653 11.9 6.21007 11.9 6.99271C11.9 7.77535 11.6252 8.43889 11.0755 8.98333C10.5257 9.52778 9.85746 9.8 9.07083 9.8Z" fill="#1C1B1F"/>
</svg>
