<svg width="16" height="14" viewBox="0 0 16 14" fill="none" xmlns="http://www.w3.org/2000/svg">
<path d="M1.5 3H14.5V1.5H1.5V3ZM0 1.5C0 1.09722 0.149306 0.746528 0.447917 0.447917C0.746528 0.149306 1.09722 0 1.5 0H14.5C14.9028 0 15.2535 0.149306 15.5521 0.447917C15.8507 0.746528 16 1.09722 16 1.5V6H1.5V10.5H5V12H1.5C1.09722 11.9861 0.746528 11.8368 0.447917 11.5521C0.149306 11.2674 0 10.9186 0 10.5058V1.5ZM10.3333 14L6.8125 10.4583L7.875 9.39583L10.3333 11.875L14.9375 7.27083L16 8.33333L10.3333 14ZM1.5 1.5V10.5V7.35417V9.58333V1.5Z" fill="#4B5563"/>
</svg>
