<svg width="45" height="46" viewBox="0 0 45 46" fill="none" xmlns="http://www.w3.org/2000/svg">
<mask id="mask0_49_1697" style="mask-type:alpha" maskUnits="userSpaceOnUse" x="0" y="0" width="45" height="46">
<rect y="0.796875" width="44.4102" height="44.4102" fill="#D9D9D9"/>
</mask>
<g mask="url(#mask0_49_1697)">
<path d="M9.25244 37.8076V34.1068H35.1584V37.8076H9.25244ZM9.25244 31.3311L6.89315 16.4815C6.83147 16.4815 6.76208 16.4892 6.68498 16.5046C6.60788 16.52 6.53849 16.5278 6.47681 16.5278C5.7058 16.5278 5.05044 16.2579 4.51073 15.7182C3.97103 15.1785 3.70117 14.5231 3.70117 13.7521C3.70117 12.9811 3.97103 12.3257 4.51073 11.786C5.05044 11.2463 5.7058 10.9765 6.47681 10.9765C7.24782 10.9765 7.90317 11.2463 8.44288 11.786C8.98259 12.3257 9.25244 12.9811 9.25244 13.7521C9.25244 13.968 9.22931 14.1685 9.18305 14.3535C9.13679 14.5385 9.08282 14.7082 9.02114 14.8624L14.8037 17.453L20.5863 9.5424C20.247 9.29568 19.9695 8.97186 19.7536 8.57093C19.5377 8.17001 19.4298 7.73824 19.4298 7.27563C19.4298 6.50463 19.6996 5.84927 20.2393 5.30956C20.779 4.76985 21.4344 4.5 22.2054 4.5C22.9764 4.5 23.6318 4.76985 24.1715 5.30956C24.7112 5.84927 24.981 6.50463 24.981 7.27563C24.981 7.73824 24.8731 8.17001 24.6572 8.57093C24.4413 8.97186 24.1638 9.29568 23.8245 9.5424L29.6071 17.453L35.3897 14.8624C35.328 14.7082 35.274 14.5385 35.2278 14.3535C35.1815 14.1685 35.1584 13.968 35.1584 13.7521C35.1584 12.9811 35.4282 12.3257 35.9679 11.786C36.5076 11.2463 37.163 10.9765 37.934 10.9765C38.705 10.9765 39.3604 11.2463 39.9001 11.786C40.4398 12.3257 40.7096 12.9811 40.7096 13.7521C40.7096 14.5231 40.4398 15.1785 39.9001 15.7182C39.3604 16.2579 38.705 16.5278 37.934 16.5278C37.8723 16.5278 37.8029 16.52 37.7258 16.5046C37.6487 16.4892 37.5793 16.4815 37.5177 16.4815L35.1584 31.3311H9.25244ZM12.3982 27.6303H32.0126L33.2154 19.9048L28.3581 22.0328L22.2054 13.5671L16.0527 22.0328L11.1954 19.9048L12.3982 27.6303Z" fill="#6C47D9"/>
</g>
</svg>
