<svg width="11" height="11" viewBox="0 0 11 11" fill="none" xmlns="http://www.w3.org/2000/svg">
<path d="M4.37806 4.2C4.66769 4.2 4.91458 4.0969 5.11875 3.89069C5.32292 3.68448 5.425 3.43656 5.425 3.14694C5.425 2.85731 5.3219 2.61042 5.11569 2.40625C4.90948 2.20208 4.66156 2.1 4.37194 2.1C4.08231 2.1 3.83542 2.2031 3.63125 2.40931C3.42708 2.61552 3.325 2.86344 3.325 3.15306C3.325 3.44269 3.4281 3.68958 3.63431 3.89375C3.84052 4.09792 4.08844 4.2 4.37806 4.2ZM4.37602 6.65C4.80312 6.65 5.20139 6.55521 5.57083 6.36562C5.94028 6.17604 6.26597 5.91991 6.54792 5.59723C6.21736 5.38519 5.86965 5.21597 5.50477 5.08958C5.1399 4.96319 4.76316 4.9 4.37456 4.9C3.98597 4.9 3.60938 4.96319 3.24479 5.08958C2.88021 5.21597 2.53264 5.38611 2.20208 5.6C2.47431 5.92083 2.79791 6.17604 3.1729 6.36562C3.54778 6.55521 3.94883 6.65 4.37602 6.65ZM9.75625 10.5L7.07292 7.81667C6.70347 8.11806 6.29062 8.34896 5.83435 8.50937C5.37809 8.66979 4.89183 8.75 4.37558 8.75C3.14047 8.75 2.10243 8.32616 1.26146 7.47848C0.420486 6.6308 0 5.59631 0 4.375C0 3.14028 0.420486 2.10243 1.26146 1.26146C2.10243 0.420486 3.13785 0 4.36771 0C5.59757 0 6.63542 0.420486 7.48125 1.26146C8.32708 2.10243 8.75 3.14047 8.75 4.37558C8.75 4.89183 8.66979 5.37809 8.50937 5.83435C8.34896 6.29062 8.11806 6.70347 7.81667 7.07292L10.5 9.75625L9.75625 10.5ZM4.375 7.7C5.30833 7.7 6.09583 7.37917 6.7375 6.7375C7.37917 6.09583 7.7 5.3059 7.7 4.36771C7.7 3.42951 7.37917 2.64201 6.7375 2.00521C6.09583 1.3684 5.30833 1.05 4.375 1.05C3.43194 1.05 2.64201 1.3684 2.00521 2.00521C1.3684 2.64201 1.05 3.42951 1.05 4.36771C1.05 5.3059 1.3684 6.09583 2.00521 6.7375C2.64201 7.37917 3.43194 7.7 4.375 7.7Z" fill="#1C1B1F"/>
</svg>
