<svg width="25" height="25" viewBox="0 0 25 25" fill="none" xmlns="http://www.w3.org/2000/svg">
<mask id="mask0_153_4611" style="mask-type:alpha" maskUnits="userSpaceOnUse" x="0" y="0" width="25" height="25">
<rect width="24.5913" height="24.5913" fill="#D9D9D9"/>
</mask>
<g mask="url(#mask0_153_4611)">
<path d="M12.2958 22.132C10.4515 22.132 8.96574 21.863 7.83864 21.3251C6.71154 20.7872 6.14799 20.0827 6.14799 19.2118C6.14799 18.7678 6.31449 18.3622 6.6475 17.995C6.9805 17.6279 7.4544 17.3077 8.06918 17.0344L9.5549 18.4433C9.29874 18.5287 9.02551 18.6354 8.73519 18.7635C8.44488 18.8916 8.19726 19.0496 7.99233 19.2374C8.12895 19.4765 8.65834 19.7113 9.58052 19.9418C10.5027 20.1724 11.4078 20.2877 12.2958 20.2877C13.2521 20.2877 14.1828 20.1724 15.0879 19.9418C15.993 19.7113 16.4968 19.4509 16.5993 19.1606C16.3773 19.0069 16.1168 18.866 15.818 18.7379C15.5191 18.6098 15.2416 18.5031 14.9855 18.4177L16.4712 16.9832C17.1201 17.2564 17.6111 17.5852 17.9441 17.9694C18.2771 18.3537 18.4436 18.7678 18.4436 19.2118C18.4436 20.0827 17.8801 20.7872 16.753 21.3251C15.6259 21.863 14.1402 22.132 12.2958 22.132ZM12.3214 16.7527C13.9438 15.5573 15.1648 14.332 15.9845 13.0768C16.8042 11.8216 17.2141 10.5878 17.2141 9.37528C17.2141 7.70171 16.6847 6.43799 15.6259 5.58413C14.5671 4.73026 13.4571 4.30333 12.2958 4.30333C11.1346 4.30333 10.0245 4.73026 8.96574 5.58413C7.90694 6.43799 7.37755 7.70171 7.37755 9.37528C7.37755 10.4853 7.7874 11.6594 8.60711 12.8975C9.42682 14.1356 10.6649 15.4206 12.3214 16.7527ZM12.2958 19.0581C10.0245 17.3845 8.32961 15.7323 7.21105 14.1014C6.09248 12.4705 5.5332 10.8952 5.5332 9.37528C5.5332 8.24818 5.73813 7.25343 6.14799 6.39103C6.55784 5.52862 7.08724 4.80711 7.73617 4.22648C8.38511 3.64586 9.11089 3.20612 9.91352 2.90726C10.7162 2.60841 11.5103 2.45898 12.2958 2.45898C13.0814 2.45898 13.8755 2.60841 14.6781 2.90726C15.4807 3.20612 16.2065 3.64586 16.8554 4.22648C17.5044 4.80711 18.0338 5.52862 18.4436 6.39103C18.8535 7.25343 19.0584 8.24818 19.0584 9.37528C19.0584 10.8952 18.4991 12.4705 17.3806 14.1014C16.262 15.7323 14.5671 17.3845 12.2958 19.0581ZM12.2958 11.0659C12.8081 11.0659 13.2436 10.8866 13.6022 10.528C13.9608 10.1694 14.1402 9.7339 14.1402 9.22159C14.1402 8.70927 13.9608 8.2738 13.6022 7.91517C13.2436 7.55655 12.8081 7.37724 12.2958 7.37724C11.7835 7.37724 11.348 7.56082 10.9894 7.92798C10.6308 8.29514 10.4515 8.72634 10.4515 9.22159C10.4515 9.71683 10.6308 10.148 10.9894 10.5152C11.348 10.8824 11.7835 11.0659 12.2958 11.0659Z" fill="#6B7280"/>
</g>
</svg>
