<svg width="23" height="23" viewBox="0 0 23 23" fill="none" xmlns="http://www.w3.org/2000/svg">
<mask id="mask0_340_22020" style="mask-type:alpha" maskUnits="userSpaceOnUse" x="0" y="0" width="23" height="23">
<rect width="22.8382" height="22.8382" fill="#D9D9D9"/>
</mask>
<g mask="url(#mask0_340_22020)">
<path d="M1.90234 19.9841V2.85547H11.4183V6.66184H20.9342V19.9841H1.90234ZM3.80553 18.0809H5.70871V16.1778H3.80553V18.0809ZM3.80553 14.2746H5.70871V12.3714H3.80553V14.2746ZM3.80553 10.4682H5.70871V8.56502H3.80553V10.4682ZM3.80553 6.66184H5.70871V4.75865H3.80553V6.66184ZM7.6119 18.0809H9.51508V16.1778H7.6119V18.0809ZM7.6119 14.2746H9.51508V12.3714H7.6119V14.2746ZM7.6119 10.4682H9.51508V8.56502H7.6119V10.4682ZM7.6119 6.66184H9.51508V4.75865H7.6119V6.66184ZM11.4183 18.0809H19.031V8.56502H11.4183V10.4682H13.3215V12.3714H11.4183V14.2746H13.3215V16.1778H11.4183V18.0809ZM15.2246 12.3714V10.4682H17.1278V12.3714H15.2246ZM15.2246 16.1778V14.2746H17.1278V16.1778H15.2246Z" fill="#1B84FF"/>
</g>
</svg>
