<svg width="14" height="14" viewBox="0 0 14 14" fill="none" xmlns="http://www.w3.org/2000/svg">
<path d="M2.03613 2.48221C2.11301 2.26012 2.22833 2.11918 2.38209 2.05938C2.51022 1.99959 2.64689 2.00813 2.79211 2.08501C2.93732 2.16189 3.03555 2.27293 3.08681 2.41815C3.09535 2.43523 3.09962 2.52493 3.09962 2.68722V10.9901C3.09962 11.1524 3.09535 11.2421 3.08681 11.2592C3.02701 11.43 2.92451 11.5453 2.77929 11.6051C2.63408 11.6649 2.491 11.6628 2.35005 11.5987C2.20911 11.5347 2.11301 11.4258 2.06176 11.272L2.03613 11.1951V2.48221ZM7.82765 4.17354C7.7764 4.17354 7.72088 4.1949 7.66108 4.23761C7.60129 4.28032 7.48597 4.38709 7.31513 4.55794L6.48228 5.37797L5.31629 6.55678C5.26503 6.6422 5.23941 6.73616 5.23941 6.83867C5.23941 6.94117 5.26503 7.03513 5.31629 7.12056L5.36754 7.17181C5.76047 7.58183 6.12778 7.95768 6.46946 8.29936C6.91365 8.74355 7.19981 9.02544 7.32794 9.14502C7.49878 9.31587 7.62264 9.42264 7.69952 9.46535C7.75077 9.49098 7.81911 9.50379 7.90453 9.50379C8.05829 9.50379 8.18642 9.4504 8.28892 9.34363C8.39143 9.23685 8.44268 9.11086 8.44268 8.96564C8.44268 8.87168 8.41705 8.78199 8.3658 8.69657C8.35726 8.67948 8.13517 8.45312 7.69952 8.01747L7.07168 7.37682H10.8644C11.0608 7.37682 11.1847 7.37255 11.2359 7.364C11.2872 7.35546 11.3299 7.33838 11.3641 7.31275L11.3897 7.29994C11.4495 7.26577 11.4965 7.22306 11.5306 7.17181C11.599 7.07785 11.6331 6.9668 11.6331 6.83867C11.6331 6.71054 11.599 6.59949 11.5306 6.50553C11.4965 6.45427 11.4495 6.41156 11.3897 6.3774L11.3641 6.36458C11.3299 6.33896 11.2872 6.32187 11.2359 6.31333C11.1847 6.30479 11.0608 6.30052 10.8644 6.30052H7.07168L7.69952 5.65986C8.13517 5.22422 8.35726 4.99785 8.3658 4.98077C8.41705 4.89535 8.44268 4.80566 8.44268 4.71169C8.44268 4.54939 8.38075 4.41486 8.25689 4.30808C8.13303 4.2013 7.98995 4.15646 7.82765 4.17354Z" fill="#6B7280"/>
</svg>
