<svg width="28" height="28" viewBox="0 0 28 28" fill="none" xmlns="http://www.w3.org/2000/svg">
<path d="M28 14.0005C28 21.0714 22.7586 26.917 15.9497 27.8656C15.313 27.9539 14.6617 28 14.0005 28C13.2373 28 12.4878 27.9392 11.758 27.8215C5.09127 26.7483 0 20.9684 0 14.0005C0 6.26844 6.26844 0 13.9995 0C21.7306 0 28 6.26844 28 14.0005Z" fill="#1877F2"/>
<path d="M15.9525 11.2417V14.2915H19.7253L19.1279 18.3998H15.9525V27.8653C15.3158 27.9536 14.6645 27.9997 14.0033 27.9997C13.2401 27.9997 12.4906 27.9389 11.7608 27.8211V18.3998H8.28125V14.2915H11.7608V10.5599C11.7608 8.24478 13.6374 6.36719 15.9535 6.36719V6.36915C15.9603 6.36915 15.9662 6.36719 15.9731 6.36719H19.7263V9.92028H17.2739C16.545 9.92028 15.9535 10.5118 15.9535 11.2407L15.9525 11.2417Z" fill="white"/>
</svg>
