<svg width="12" height="16" viewBox="0 0 12 16" fill="none" xmlns="http://www.w3.org/2000/svg">
<path d="M1.49417 16C1.08139 16 0.729167 15.8531 0.4375 15.5594C0.145833 15.2656 0 14.9125 0 14.5V1.5C0 1.0875 0.146875 0.734376 0.440625 0.440626C0.734375 0.146876 1.0875 0 1.5 0H8L12 4V14.5C12 14.9125 11.8531 15.2656 11.5592 15.5594C11.2653 15.8531 10.9119 16 10.4992 16H1.49417ZM1.5 14.5H10.5V5H7V1.5H1.5V14.5ZM5.74042 14C6.65042 14 7.42118 13.684 8.05271 13.0521C8.68424 12.4201 9 11.6528 9 10.75V8H7.5V10.75C7.5 11.2312 7.32986 11.6433 6.98958 11.986C6.64931 12.3287 6.23271 12.5 5.73979 12.5C5.26132 12.5 4.85174 12.3287 4.51104 11.986C4.17035 11.6433 4 11.2312 4 10.75V7C4 6.86111 4.05 6.74306 4.15 6.64583C4.25 6.54861 4.36667 6.5 4.5 6.5C4.63889 6.5 4.75694 6.54861 4.85417 6.64583C4.95139 6.74306 5 6.86111 5 7V11H6.5V7C6.5 6.44 6.30715 5.96667 5.92146 5.58C5.53563 5.19333 5.0634 5 4.50479 5C3.94604 5 3.47222 5.19333 3.08333 5.58C2.69444 5.96667 2.5 6.44 2.5 7V10.75C2.5 11.6528 2.81597 12.4201 3.44792 13.0521C4.07986 13.684 4.84403 14 5.74042 14Z" fill="#F26522"/>
</svg>
