<svg width="11" height="11" viewBox="0 0 11 11" fill="none" xmlns="http://www.w3.org/2000/svg">
<path d="M2.33491 2.10577C2.33491 2.10577 2.3482 2.10577 2.37479 2.10577C2.69387 2.09913 2.99633 2.0958 3.28218 2.0958C3.86051 2.0958 4.1962 2.10245 4.28927 2.11574C4.43551 2.14233 4.56514 2.20715 4.67815 2.31018C4.79115 2.41322 4.87092 2.53786 4.91746 2.6841C4.9374 2.74393 4.95069 2.837 4.95734 2.9633C4.95734 3.06966 4.95734 3.36215 4.95734 3.84077V4.56867C4.95069 4.67502 4.94405 4.7415 4.9374 4.76809C4.89087 4.93428 4.81276 5.07221 4.70308 5.1819C4.59339 5.29158 4.45546 5.36636 4.28927 5.40625C4.25603 5.4129 4.12308 5.41622 3.89042 5.41622H2.33491C1.94271 5.31651 1.71337 5.09714 1.6469 4.75812C1.6336 4.66505 1.62695 4.31938 1.62695 3.72111L1.63692 2.76387C1.6901 2.5578 1.78317 2.39826 1.91612 2.28525C2.02248 2.19884 2.16208 2.13901 2.33491 2.10577ZM5.78495 2.80376C5.87802 2.42485 6.09738 2.19551 6.44305 2.11574C6.52282 2.10245 6.86517 2.0958 7.47009 2.0958L8.4373 2.10577C8.58354 2.14566 8.70652 2.20216 8.80623 2.27528C8.94583 2.38829 9.04222 2.55115 9.0954 2.76387L9.10537 3.72111C9.10537 4.23297 9.10371 4.53875 9.10038 4.63846C9.09706 4.73818 9.07878 4.82127 9.04554 4.88774V4.89772C8.99236 5.01737 8.9209 5.12041 8.83116 5.20682C8.74142 5.29324 8.63672 5.35307 8.51707 5.38631C8.45724 5.40625 8.36418 5.41622 8.23787 5.41622C8.13151 5.42287 7.83903 5.42619 7.36041 5.42619H6.63251C6.52615 5.41954 6.45967 5.4129 6.43308 5.40625C6.2669 5.35972 6.12896 5.28161 6.01928 5.17192C5.90959 5.06224 5.83481 4.9243 5.79492 4.75812C5.78828 4.72488 5.78495 4.59193 5.78495 4.35927V3.74105V2.80376ZM2.46454 2.93338V4.58861H4.11976V2.93338H2.46454ZM6.61256 2.93338V4.58861H8.26779V2.93338H6.61256ZM2.36482 6.2538C2.37147 6.2538 2.39806 6.2538 2.44459 6.2538C2.77697 6.24715 3.07278 6.24383 3.33203 6.24383C3.77077 6.24383 4.04664 6.24715 4.15964 6.2538C4.25271 6.26045 4.33248 6.27707 4.39895 6.30366L4.42887 6.31363C4.52193 6.34687 4.61333 6.40836 4.70308 6.4981C4.79282 6.58784 4.85431 6.67924 4.88754 6.77231L4.89751 6.80222C4.9241 6.86869 4.94072 6.94514 4.94737 7.03156C4.95402 7.14456 4.95734 7.41046 4.95734 7.82925C4.95734 8.30787 4.95734 8.60036 4.95734 8.70672C4.95069 8.83302 4.9374 8.92609 4.91746 8.98592C4.87092 9.13216 4.79115 9.2568 4.67815 9.35984C4.56514 9.46287 4.43551 9.52769 4.28927 9.55428C4.1962 9.56757 3.85054 9.57422 3.25226 9.57422L2.29503 9.56425C2.1089 9.50442 1.9693 9.4313 1.87623 9.34488C1.76323 9.23852 1.68346 9.09228 1.63692 8.90615L1.62695 7.94891V7.21104C1.6336 7.06479 1.64025 6.96508 1.6469 6.9119C1.65354 6.87202 1.66684 6.82216 1.68678 6.76233C1.74661 6.62274 1.83801 6.50641 1.96099 6.41334C2.08397 6.32028 2.21858 6.2671 2.36482 6.2538ZM6.55274 6.2538C6.55274 6.2538 6.56603 6.2538 6.59262 6.2538C6.91835 6.24715 7.22081 6.24383 7.5 6.24383C7.8922 6.24383 8.15146 6.24715 8.27776 6.2538C8.36418 6.2538 8.42733 6.26045 8.46721 6.27374H8.47718C8.63672 6.32028 8.77133 6.40005 8.88102 6.51305C8.9907 6.62606 9.05884 6.75901 9.08543 6.9119C9.09872 7.00497 9.10537 7.35064 9.10537 7.94891L9.0954 8.90615C9.02892 9.11222 8.94251 9.26179 8.83615 9.35485C8.74973 9.43462 8.61678 9.50442 8.4373 9.56425L7.48006 9.57422C6.9682 9.57422 6.66242 9.57256 6.56271 9.56923C6.463 9.56591 6.3799 9.54763 6.31343 9.51439H6.30346C6.20374 9.47451 6.11733 9.42133 6.0442 9.35485C5.92455 9.24184 5.83813 9.07898 5.78495 8.86626V7.31075C5.78495 7.07809 5.78828 6.94514 5.79492 6.9119C5.84146 6.72577 5.93286 6.57288 6.06913 6.45323C6.20541 6.33357 6.36661 6.2671 6.55274 6.2538ZM2.46454 7.08141V8.73664H4.11976V7.08141H2.46454ZM6.61256 7.90902V8.73664H8.26779V7.08141H6.61256V7.90902Z" fill="#6B7280"/>
</svg>
