<svg width="35" height="34" viewBox="0 0 35 34" fill="none" xmlns="http://www.w3.org/2000/svg">
<path d="M2.7775 33.3333C1.99056 33.3333 1.33083 33.0671 0.798334 32.5346C0.266111 32.0024 0 31.3426 0 30.5554V2.77792C0 2.04625 0.266111 1.40042 0.798334 0.840416C1.33083 0.280138 1.99056 0 2.7775 0H30.5554C31.2868 0 31.9326 0.280138 32.4929 0.840416C33.0532 1.40042 33.3333 2.04625 33.3333 2.77792V17.2221H30.5554V2.77792H2.7775V30.5554H12.1942V33.3333H2.7775ZM6.11083 27.7779H6.66667C6.99056 27.7779 7.25667 27.6738 7.465 27.4654C7.67333 27.2571 7.7775 26.9908 7.7775 26.6667V24.2221H12.1942V21.4446H7.7775V16.1667H28.3333V15.4446L25.5833 7.44458C25.4444 7.05569 25.2153 6.73625 24.8958 6.48625C24.5764 6.23625 24.2222 6.11125 23.8333 6.11125H9.5C9.11111 6.11125 8.75695 6.23625 8.4375 6.48625C8.11806 6.73625 7.88889 7.05569 7.75 7.44458L5 15.4446V26.6667C5 26.9908 5.10417 27.2571 5.3125 27.4654C5.52083 27.6738 5.78694 27.7779 6.11083 27.7779ZM8.61083 13.3888L10.1108 8.88875H23.2221L24.75 13.3888H8.61083ZM10.6992 20.1946C11.0942 20.1946 11.4236 20.061 11.6875 19.7938C11.9514 19.5265 12.0833 19.1956 12.0833 18.8008C12.0833 18.4058 11.9497 18.0764 11.6825 17.8125C11.4153 17.5486 11.0843 17.4167 10.6896 17.4167C10.2946 17.4167 9.96514 17.5503 9.70125 17.8175C9.43736 18.0844 9.30542 18.4154 9.30542 18.8104C9.30542 19.2054 9.43903 19.5349 9.70625 19.7988C9.9732 20.0626 10.3042 20.1946 10.6992 20.1946ZM19.5692 31.1113H30.3638C30.5101 30.5279 30.7986 30.021 31.2292 29.5904C31.6597 29.1599 32.1667 28.8751 32.75 28.7363V24.5971C32.1667 24.4582 31.6597 24.1735 31.2292 23.7429C30.7986 23.3124 30.5139 22.8054 30.375 22.2221H19.5804C19.434 22.8054 19.1456 23.3124 18.715 23.7429C18.2844 24.1735 17.7775 24.4582 17.1942 24.5971V28.7363C17.7775 28.8751 18.2844 29.1599 18.715 29.5904C19.1456 30.021 19.4303 30.5279 19.5692 31.1113ZM24.9721 29.1667C25.6665 29.1667 26.2568 28.9236 26.7429 28.4375C27.229 27.9514 27.4721 27.3611 27.4721 26.6667C27.4721 25.9722 27.229 25.3819 26.7429 24.8958C26.2568 24.4097 25.6665 24.1667 24.9721 24.1667C24.2776 24.1667 23.6874 24.4097 23.2013 24.8958C22.7151 25.3819 22.4721 25.9722 22.4721 26.6667C22.4721 27.3611 22.7151 27.9514 23.2013 28.4375C23.6874 28.9236 24.2776 29.1667 24.9721 29.1667ZM18.3054 33.3333C17.3888 33.3333 16.604 33.007 15.9513 32.3542C15.2985 31.7014 14.9721 30.9167 14.9721 30V23.3333C14.9721 22.4167 15.2985 21.6319 15.9513 20.9792C16.604 20.3264 17.3888 20 18.3054 20H31.6388C32.5554 20 33.3401 20.3264 33.9929 20.9792C34.6457 21.6319 34.9721 22.4167 34.9721 23.3333V30C34.9721 30.9167 34.6457 31.7014 33.9929 32.3542C33.3401 33.007 32.5554 33.3333 31.6388 33.3333H18.3054Z" fill="#F26522"/>
</svg>
