<svg width="28" height="28" viewBox="0 0 28 28" fill="none" xmlns="http://www.w3.org/2000/svg">
<path d="M14.0319 0H13.9681C6.25374 0 0 6.25374 0 13.9681V14.0319C0 21.7463 6.25374 28 13.9681 28H14.0319C21.7463 28 28 21.7463 28 14.0319V13.9681C28 6.25374 21.7463 0 14.0319 0Z" fill="url(#paint0_linear_311_10369)"/>
<path d="M18.3329 5.69922H9.66894C7.27536 5.69922 5.32812 7.64646 5.32812 10.04V17.9663C5.32812 20.3599 7.27536 22.3071 9.66894 22.3071H18.3329C20.7265 22.3071 22.6737 20.3599 22.6737 17.9663V10.04C22.6737 7.64646 20.7265 5.69922 18.3329 5.69922ZM6.85943 10.04C6.85943 8.49108 8.11998 7.23052 9.66894 7.23052H18.3329C19.8819 7.23052 21.1424 8.49108 21.1424 10.04V17.9663C21.1424 19.5153 19.8819 20.7758 18.3329 20.7758H9.66894C8.11998 20.7758 6.85943 19.5153 6.85943 17.9663V10.04Z" fill="white"/>
<path d="M13.9986 18.0402C16.2245 18.0402 18.0363 16.2294 18.0363 14.0025C18.0363 11.7757 16.2255 9.96484 13.9986 9.96484C11.7718 9.96484 9.96094 11.7757 9.96094 14.0025C9.96094 16.2294 11.7718 18.0402 13.9986 18.0402ZM13.9986 11.4971C15.3808 11.4971 16.505 12.6213 16.505 14.0035C16.505 15.3857 15.3808 16.5099 13.9986 16.5099C12.6164 16.5099 11.4922 15.3857 11.4922 14.0035C11.4922 12.6213 12.6164 11.4971 13.9986 11.4971Z" fill="white"/>
<path d="M18.416 10.6172C19.0154 10.6172 19.5039 10.1297 19.5039 9.52931C19.5039 8.92895 19.0164 8.44141 18.416 8.44141C17.8157 8.44141 17.3281 8.92895 17.3281 9.52931C17.3281 10.1297 17.8157 10.6172 18.416 10.6172Z" fill="white"/>
<defs>
<linearGradient id="paint0_linear_311_10369" x1="4.09067" y1="23.9093" x2="23.9093" y2="4.09165" gradientUnits="userSpaceOnUse">
<stop stop-color="#FAAD4F"/>
<stop offset="0.35" stop-color="#DD2A7B"/>
<stop offset="0.62" stop-color="#9537B0"/>
<stop offset="1" stop-color="#515BD4"/>
</linearGradient>
</defs>
</svg>
