<svg width="48" height="49" viewBox="0 0 48 49" fill="none" xmlns="http://www.w3.org/2000/svg">
<mask id="mask0_50_8931" style="mask-type:alpha" maskUnits="userSpaceOnUse" x="0" y="0" width="48" height="49">
<rect y="0.296875" width="48" height="48" fill="#6C47D8"/>
</mask>
<g mask="url(#mask0_50_8931)">
<path d="M14.05 17.0469L17.8 13.2969L14.05 9.54688L10.3 13.2969L14.05 17.0469ZM7 28.2969C6.2 28.2969 5.5 27.9969 4.9 27.3969C4.3 26.7969 4 26.0969 4 25.2969V5.29688C4 4.49688 4.3 3.79688 4.9 3.19688C5.5 2.59688 6.2 2.29688 7 2.29688H41C41.8 2.29688 42.5 2.59688 43.1 3.19688C43.7 3.79688 44 4.49688 44 5.29688V25.2969C44 26.0969 43.7 26.7969 43.1 27.3969C42.5 27.9969 41.8 28.2969 41 28.2969H33.55C33.7167 27.8302 33.8333 27.3469 33.9 26.8469C33.9667 26.3469 34 25.8302 34 25.2969H41V5.29688H7V25.2969H14C14 25.8302 14.0333 26.3469 14.1 26.8469C14.1667 27.3469 14.2833 27.8302 14.45 28.2969H7ZM33.003 14.0469C33.7677 14.0469 34.4167 13.7792 34.95 13.2439C35.4833 12.7085 35.75 12.0585 35.75 11.2939C35.75 10.5292 35.4823 9.88021 34.947 9.34688C34.4117 8.81354 33.7617 8.54688 32.997 8.54688C32.2323 8.54688 31.5833 8.81454 31.05 9.34987C30.5167 9.88521 30.25 10.5352 30.25 11.2999C30.25 12.0645 30.5177 12.7135 31.053 13.2469C31.5883 13.7802 32.2383 14.0469 33.003 14.0469ZM10 46.2969V42.0969C10 40.9302 10.325 39.8469 10.975 38.8469C11.625 37.8469 12.4833 37.0969 13.55 36.5969C15.1833 35.8302 16.8833 35.2552 18.65 34.8719C20.4167 34.4885 22.2 34.2969 24 34.2969C25.8 34.2969 27.5833 34.4885 29.35 34.8719C31.1167 35.2552 32.8167 35.8302 34.45 36.5969C35.5167 37.0969 36.375 37.8469 37.025 38.8469C37.675 39.8469 38 40.9302 38 42.0969V46.2969H10ZM13 43.2969H35V42.0969C35 41.5092 34.8333 40.9707 34.5 40.4814C34.1667 39.9917 33.7167 39.6135 33.15 39.3469C31.7167 38.6802 30.2333 38.1719 28.7 37.8219C27.1667 37.4719 25.6 37.2969 24 37.2969C22.4 37.2969 20.8333 37.4719 19.3 37.8219C17.7667 38.1719 16.2833 38.6802 14.85 39.3469C14.2833 39.6135 13.8333 39.9917 13.5 40.4814C13.1667 40.9707 13 41.5092 13 42.0969V43.2969ZM24 32.2969C22.0667 32.2969 20.4167 31.6135 19.05 30.2469C17.6833 28.8802 17 27.2302 17 25.2969C17 23.3635 17.6833 21.7135 19.05 20.3469C20.4167 18.9802 22.0667 18.2969 24 18.2969C25.9333 18.2969 27.5833 18.9802 28.95 20.3469C30.3167 21.7135 31 23.3635 31 25.2969C31 27.2302 30.3167 28.8802 28.95 30.2469C27.5833 31.6135 25.9333 32.2969 24 32.2969ZM23.988 29.2969C25.096 29.2969 26.0417 28.9092 26.825 28.1339C27.6083 27.3582 28 26.4165 28 25.3089C28 24.2009 27.6123 23.2552 26.837 22.4719C26.0613 21.6885 25.1197 21.2969 24.012 21.2969C22.904 21.2969 21.9583 21.6845 21.175 22.4599C20.3917 23.2355 20 24.1772 20 25.2849C20 26.3929 20.3877 27.3385 21.163 28.1219C21.9387 28.9052 22.8803 29.2969 23.988 29.2969Z" fill="#6C47D8"/>
</g>
</svg>
