<svg width="28" height="28" viewBox="0 0 28 28" fill="none" xmlns="http://www.w3.org/2000/svg">
<path d="M14.0319 0H13.9681C6.25375 0 0 6.25374 0 13.9681V14.0319C0 21.7463 6.25375 28 13.9681 28H14.0319C21.7463 28 28 21.7463 28 14.0319V13.9681C28 6.25374 21.7463 0 14.0319 0Z" fill="#007EBB"/>
<path d="M6.67728 9.30485C6.30843 8.96249 6.125 8.5387 6.125 8.03448C6.125 7.53026 6.30941 7.08784 6.67728 6.7445C7.04612 6.40214 7.52092 6.23047 8.10264 6.23047C8.68436 6.23047 9.14052 6.40214 9.50838 6.7445C9.87723 7.08686 10.0607 7.51751 10.0607 8.03448C10.0607 8.55146 9.87625 8.96249 9.50838 9.30485C9.13954 9.64721 8.6716 9.81888 8.10264 9.81888C7.53367 9.81888 7.04612 9.64721 6.67728 9.30485ZM9.75068 11.2688V21.7652H6.434V11.2688H9.75068Z" fill="#FEFFFC"/>
<path d="M20.7933 12.3061C21.5163 13.0909 21.8773 14.168 21.8773 15.5394V21.5802H18.7274V15.9651C18.7274 15.2735 18.5479 14.736 18.1898 14.3534C17.8318 13.9708 17.3491 13.7785 16.7449 13.7785C16.1406 13.7785 15.6579 13.9698 15.2999 14.3534C14.9418 14.736 14.7623 15.2735 14.7623 15.9651V21.5802H11.5938V11.2398H14.7623V12.6112C15.0831 12.154 15.5157 11.793 16.0592 11.5272C16.6026 11.2613 17.2138 11.1289 17.8936 11.1289C19.1041 11.1289 20.0713 11.5213 20.7933 12.3061Z" fill="#FEFFFC"/>
</svg>
