<svg width="25" height="25" viewBox="0 0 25 25" fill="none" xmlns="http://www.w3.org/2000/svg">
<mask id="mask0_214_17612" style="mask-type:alpha" maskUnits="userSpaceOnUse" x="0" y="0" width="25" height="25">
<rect y="0.000976562" width="24.5299" height="24.5299" fill="#D9D9D9"/>
</mask>
<g mask="url(#mask0_214_17612)">
<path d="M11.2429 23.5085V21.4643C9.11359 21.2259 7.28662 20.3443 5.76202 18.8197C4.23743 17.2951 3.35588 15.4682 3.1174 13.3388H1.07324V11.2947H3.1174C3.35588 9.16535 4.23743 7.33838 5.76202 5.81378C7.28662 4.28918 9.11359 3.40764 11.2429 3.16916V1.125H13.2871V3.16916C15.4164 3.40764 17.2434 4.28918 18.768 5.81378C20.2926 7.33838 21.1741 9.16535 21.4126 11.2947H23.4567V13.3388H21.4126C21.1741 15.4682 20.2926 17.2951 18.768 18.8197C17.2434 20.3443 15.4164 21.2259 13.2871 21.4643V23.5085H11.2429ZM12.265 19.4713C14.241 19.4713 15.9274 18.7729 17.3243 17.376C18.7211 15.9792 19.4195 14.2928 19.4195 12.3168C19.4195 10.3407 18.7211 8.65431 17.3243 7.25747C15.9274 5.86063 14.241 5.16221 12.265 5.16221C10.289 5.16221 8.60255 5.86063 7.20571 7.25747C5.80887 8.65431 5.11045 10.3407 5.11045 12.3168C5.11045 14.2928 5.80887 15.9792 7.20571 17.376C8.60255 18.7729 10.289 19.4713 12.265 19.4713Z" fill="#1C1B1F"/>
</g>
</svg>
