<svg width="11" height="11" viewBox="0 0 11 11" fill="none" xmlns="http://www.w3.org/2000/svg">
<path d="M2.26172 2.51326C2.26837 2.51326 2.30493 2.51326 2.3714 2.51326C3.41506 2.50661 4.40221 2.50329 5.33286 2.50329H7.88549C8.19127 2.50993 8.36411 2.51658 8.40399 2.52323C8.6433 2.56976 8.84938 2.6728 9.02221 2.83234C9.21499 3.00517 9.34129 3.22786 9.40112 3.50041L9.42106 3.60012V8.06723L9.40112 8.16694C9.35458 8.37301 9.26817 8.55249 9.14186 8.70539C8.96238 8.93805 8.7131 9.08429 8.39402 9.14412C8.34749 9.15077 8.17466 9.15742 7.87552 9.16406H2.67054C2.3714 9.15742 2.19857 9.15077 2.15204 9.14412C1.98585 9.11088 1.82299 9.04108 1.66345 8.93472C1.38425 8.74859 1.20809 8.48602 1.13497 8.147C1.12832 8.12041 1.125 8.0639 1.125 7.97749V3.68986C1.125 3.60344 1.12832 3.54694 1.13497 3.52035C1.1948 3.25445 1.3211 3.02844 1.51388 2.84231C1.7266 2.64288 1.97588 2.5332 2.26172 2.51326ZM2.26172 3.36081C2.16865 3.3874 2.09886 3.42729 2.05232 3.48047C2.01909 3.5137 2.00247 3.54029 2.00247 3.56024L3.63775 4.65707L5.27303 5.74393L6.90831 4.65707L8.54359 3.56024C8.54359 3.54694 8.52697 3.52035 8.49373 3.48047C8.44056 3.42064 8.36743 3.37743 8.27437 3.35084C8.23448 3.34419 7.23238 3.34087 5.26804 3.34087C3.30371 3.34087 2.3016 3.34752 2.26172 3.36081ZM1.95261 6.27241L1.96258 8.0074C1.99582 8.08717 2.02906 8.14367 2.0623 8.17691C2.11547 8.24339 2.18527 8.28659 2.27169 8.30654C2.33817 8.31983 3.33861 8.32648 5.27303 8.32648C7.20745 8.32648 8.20789 8.31983 8.27437 8.30654C8.36079 8.28659 8.43058 8.24339 8.48376 8.17691C8.517 8.14367 8.55024 8.08717 8.58348 8.0074L8.59345 6.27241V4.53742L6.39978 6.00318C5.75497 6.42862 5.41927 6.64467 5.39268 6.65131C5.36609 6.65796 5.32621 6.66129 5.27303 6.66129C5.21985 6.66129 5.17996 6.65796 5.15337 6.65131C5.12678 6.64467 4.79109 6.42862 4.14628 6.00318L1.95261 4.53742V6.27241Z" fill="#6B7280"/>
</svg>
