<svg width="12" height="11" viewBox="0 0 12 11" fill="none" xmlns="http://www.w3.org/2000/svg">
<path d="M1.90918 5.57638C1.90918 4.94486 2.06872 4.36653 2.3878 3.84138C2.68694 3.34947 3.09908 2.94065 3.62423 2.61492C4.13609 2.29584 4.70611 2.08645 5.33429 1.98673C5.96248 1.88702 6.57904 1.91029 7.18396 2.05653C7.82876 2.21607 8.40377 2.50191 8.90898 2.91406C9.43413 3.34614 9.80473 3.86299 10.0208 4.46458C10.2368 5.06618 10.275 5.67276 10.1354 6.28433C9.98919 6.91584 9.66679 7.48088 9.16823 7.97944L8.98875 8.15892L9.28788 8.60763L9.43745 8.80705C9.53717 8.96659 9.56043 9.13278 9.50725 9.30561C9.45407 9.49174 9.32112 9.62802 9.1084 9.71443C9.06852 9.72773 9.00869 9.73438 8.92892 9.73438H8.81924C8.61981 9.73438 8.3938 9.70779 8.14119 9.65461C7.68252 9.56154 7.2604 9.39868 6.87485 9.16602L6.81502 9.1361L6.57571 9.14607C6.2234 9.15937 5.94088 9.15937 5.72816 9.14607C5.3559 9.11948 5.00358 9.05633 4.67121 8.95662C4.25906 8.83696 3.87019 8.65416 3.50458 8.4082C3.10573 8.14895 2.77335 7.82987 2.50745 7.45096C2.1086 6.89258 1.90918 6.26771 1.90918 5.57638ZM9.36765 5.57638C9.36765 4.97145 9.1782 4.43633 8.79929 3.97101C8.46027 3.55886 8.01157 3.24311 7.45318 3.02374C6.92803 2.81767 6.40952 2.73125 5.89767 2.76449C5.37252 2.78443 4.87396 2.90741 4.40199 3.13343C3.90342 3.37274 3.51122 3.69181 3.22538 4.09066C2.9063 4.5294 2.74676 5.02131 2.74676 5.5664C2.74676 5.706 2.75009 5.80571 2.75673 5.86554C2.76338 5.94531 2.77668 6.03173 2.79662 6.12479C2.88304 6.49705 3.05587 6.83607 3.31512 7.14186C3.57437 7.44764 3.89678 7.70025 4.28233 7.89967C4.66788 8.09909 5.08668 8.22872 5.5387 8.28855C5.6916 8.30849 5.84781 8.32179 6.00735 8.32843C6.18019 8.32843 6.40952 8.32179 6.69537 8.30849C6.86155 8.2952 6.96625 8.29353 7.00946 8.3035C7.05267 8.31348 7.12745 8.34838 7.23381 8.4082C7.40665 8.51456 7.63266 8.6176 7.91186 8.71731C8.15117 8.80373 8.31735 8.85358 8.41042 8.86688H8.4503C8.28411 8.62092 8.17443 8.43479 8.12125 8.30849C8.08137 8.21543 8.06142 8.12236 8.06142 8.0293C8.06142 7.95617 8.0714 7.89967 8.09134 7.85979C8.12458 7.79996 8.19105 7.73016 8.29076 7.65039C8.49683 7.49085 8.68296 7.30472 8.84915 7.092C9.1084 6.74633 9.27459 6.37407 9.34771 5.97522C9.36101 5.88881 9.36765 5.75586 9.36765 5.57638ZM4.05299 6.06497C3.98652 6.09155 3.93001 6.12812 3.88348 6.17465C3.81701 6.24777 3.78377 6.34084 3.78377 6.45384C3.78377 6.54026 3.80039 6.61006 3.83363 6.66324C3.88016 6.74301 3.98319 6.84604 4.14273 6.97235C4.50835 7.26484 4.92381 7.46592 5.38914 7.57561C5.85446 7.68529 6.31978 7.68363 6.78511 7.57062C7.28367 7.44432 7.73237 7.19836 8.13122 6.83275C8.22429 6.74633 8.28079 6.68484 8.30073 6.64828C8.32068 6.61172 8.33065 6.55189 8.33065 6.4688C8.33065 6.38571 8.31403 6.31092 8.28079 6.24445C8.21432 6.11814 8.09799 6.05499 7.9318 6.05499C7.85868 6.05499 7.8055 6.06164 7.77226 6.07494C7.73902 6.08823 7.67587 6.13476 7.58281 6.21453C7.3302 6.45384 7.03439 6.62668 6.69537 6.73304C6.3364 6.8394 5.97744 6.85602 5.61847 6.78289C5.21963 6.69648 4.85734 6.5037 4.53161 6.20456C4.45849 6.13809 4.40199 6.09488 4.3621 6.07494C4.32222 6.05499 4.26737 6.04502 4.19758 6.04502C4.12778 6.04502 4.07958 6.05167 4.05299 6.06497Z" fill="#6B7280"/>
</svg>
