<svg width="48" height="49" viewBox="0 0 48 49" fill="none" xmlns="http://www.w3.org/2000/svg">
<mask id="mask0_49_5293" style="mask-type:alpha" maskUnits="userSpaceOnUse" x="0" y="0" width="48" height="49">
<rect y="0.796875" width="48" height="48" fill="#F26522"/>
</mask>
<g mask="url(#mask0_49_5293)">
<path d="M6 42.7969V38.9969L9 35.9969V42.7969H6ZM14.25 42.7969V30.9969L17.25 27.9969V42.7969H14.25ZM22.5 42.7969V27.9969L25.5 31.0469V42.7969H22.5ZM30.75 42.7969V31.0469L33.75 28.0469V42.7969H30.75ZM39 42.7969V22.9969L42 19.9969V42.7969H39ZM6 30.9969V26.7469L20 12.8469L28 20.8469L42 6.79688V11.0469L28 25.0969L20 17.0969L6 30.9969Z" fill="#F26522"/>
</g>
</svg>
