<svg width="11" height="11" viewBox="0 0 11 11" fill="none" xmlns="http://www.w3.org/2000/svg">
<path d="M4.29187 2.57428C4.37829 2.28843 4.5345 2.06574 4.76052 1.9062C4.97324 1.75996 5.21421 1.68684 5.48343 1.68684C5.75265 1.68684 5.99363 1.75996 6.20635 1.9062C6.43901 2.07239 6.59855 2.2984 6.68496 2.58425C6.69826 2.62413 6.70657 2.64906 6.70989 2.65903C6.71322 2.669 6.72817 2.68063 6.75476 2.69393C6.9143 2.78699 7.04393 2.87009 7.14364 2.94321C7.45607 3.19581 7.71532 3.49495 7.9214 3.84062C8.12747 4.18629 8.26707 4.55522 8.34019 4.94743C8.36678 5.06708 8.38173 5.17344 8.38506 5.26651C8.38838 5.35957 8.39337 5.59223 8.40001 5.96449L8.40999 6.71233C8.43658 6.84528 8.47646 6.96161 8.52964 7.06133C8.62935 7.24081 8.77227 7.39038 8.9584 7.51003C9.03153 7.55656 9.09468 7.61639 9.14786 7.68951C9.22098 7.78922 9.24757 7.88894 9.22763 7.98865C9.20104 8.11495 9.098 8.22796 8.91852 8.32767H7.15361L7.14364 8.4573C7.1104 8.86944 6.95751 9.21179 6.68496 9.48433C6.44565 9.73029 6.14652 9.88484 5.78755 9.94799C5.42859 10.0111 5.08957 9.9696 4.77049 9.82335C4.42482 9.66381 4.16557 9.40456 3.99273 9.0456C3.89967 8.84617 3.84317 8.63678 3.82322 8.41741V8.32767H2.05832C1.88548 8.22796 1.78245 8.11827 1.74921 7.99862C1.72927 7.90556 1.74256 7.81249 1.78909 7.71943C1.82233 7.66625 1.85224 7.62968 1.87883 7.60974L2.01843 7.52C2.2378 7.37376 2.39734 7.17433 2.49705 6.92173L2.50702 6.90179C2.54026 6.81537 2.5602 6.7356 2.56685 6.66248C2.5735 6.58935 2.57682 6.37996 2.57682 6.03429C2.57682 5.66203 2.58181 5.40943 2.59178 5.27648C2.60175 5.14353 2.62335 4.99728 2.65659 4.83774C2.73636 4.47213 2.87596 4.12812 3.07538 3.80572C3.27481 3.48332 3.52076 3.20579 3.81325 2.97312C3.92626 2.88006 4.03927 2.80029 4.15227 2.73381C4.19881 2.70722 4.23038 2.68562 4.247 2.669C4.26362 2.65238 4.27858 2.62081 4.29187 2.57428ZM5.50836 2.51445C5.43524 2.51445 5.38206 2.51777 5.34882 2.52442C5.30229 2.54436 5.25409 2.57926 5.20424 2.62912C5.15438 2.67897 5.11948 2.73381 5.09954 2.79364C5.08624 2.82688 5.07295 2.87674 5.05965 2.94321C5.05301 3.03627 5.03639 3.10275 5.0098 3.14263C4.96991 3.21576 4.89014 3.28223 4.77049 3.34206C4.52453 3.46836 4.30517 3.6279 4.11239 3.82068C3.76672 4.17299 3.54403 4.61173 3.44432 5.13688C3.43102 5.2233 3.42105 5.5108 3.4144 5.99939C3.40776 6.48798 3.39778 6.77881 3.38449 6.87187C3.35125 7.05135 3.27481 7.26075 3.15515 7.50006H7.82168C7.73527 7.32722 7.67876 7.19427 7.65217 7.10121C7.61229 6.99485 7.58902 6.86522 7.58237 6.71233C7.57573 6.59933 7.56908 6.36666 7.56243 6.01435V6.00438C7.55578 5.61217 7.54914 5.3712 7.54249 5.28146C7.53584 5.19172 7.51922 5.08702 7.49263 4.96737C7.42616 4.68153 7.31315 4.41563 7.15361 4.16967C6.9143 3.81735 6.59855 3.54148 6.20635 3.34206C6.09999 3.28888 6.02686 3.23404 5.98698 3.17753C5.94709 3.12103 5.9205 3.03627 5.90721 2.92327C5.89391 2.78367 5.83741 2.67399 5.7377 2.59422C5.65793 2.54104 5.58148 2.51445 5.50836 2.51445ZM4.66081 8.37753C4.66081 8.48389 4.69404 8.59856 4.76052 8.72153C4.82699 8.84451 4.91673 8.94589 5.02974 9.02566C5.16269 9.11207 5.31558 9.15528 5.48842 9.15528C5.66125 9.15528 5.81414 9.11207 5.94709 9.02566C6.0601 8.94589 6.14984 8.84451 6.21632 8.72153C6.28279 8.59856 6.31603 8.48389 6.31603 8.37753V8.32767H4.66081V8.37753Z" fill="#6B7280"/>
</svg>
