<svg width="48" height="49" viewBox="0 0 48 49" fill="none" xmlns="http://www.w3.org/2000/svg">
<mask id="mask0_50_8943" style="mask-type:alpha" maskUnits="userSpaceOnUse" x="0" y="0" width="48" height="49">
<rect y="0.796875" width="48" height="48" fill="#F26522"/>
</mask>
<g mask="url(#mask0_50_8943)">
<path d="M27 27.7969C25.3333 27.7969 23.9167 27.2135 22.75 26.0469C21.5833 24.8802 21 23.4635 21 21.7969C21 20.1302 21.5833 18.7135 22.75 17.5469C23.9167 16.3802 25.3333 15.7969 27 15.7969C28.6667 15.7969 30.0833 16.3802 31.25 17.5469C32.4167 18.7135 33 20.1302 33 21.7969C33 23.4635 32.4167 24.8802 31.25 26.0469C30.0833 27.2135 28.6667 27.7969 27 27.7969ZM11 34.7969C10.175 34.7969 9.46883 34.503 8.8815 33.9154C8.29383 33.328 8 32.6219 8 31.7969V11.7969C8 10.9719 8.29383 10.2655 8.8815 9.67787C9.46883 9.09054 10.175 8.79688 11 8.79688H43C43.825 8.79688 44.5313 9.09054 45.119 9.67787C45.7063 10.2655 46 10.9719 46 11.7969V31.7969C46 32.6219 45.7063 33.328 45.119 33.9154C44.5313 34.503 43.825 34.7969 43 34.7969H11ZM16 31.7969H38C38 30.3969 38.4833 29.2135 39.45 28.2469C40.4167 27.2802 41.6 26.7969 43 26.7969V16.7969C41.6 16.7969 40.4167 16.3135 39.45 15.3469C38.4833 14.3802 38 13.1969 38 11.7969H16C16 13.1969 15.5167 14.3802 14.55 15.3469C13.5833 16.3135 12.4 16.7969 11 16.7969V26.7969C12.4 26.7969 13.5833 27.2802 14.55 28.2469C15.5167 29.2135 16 30.3969 16 31.7969ZM40 40.7969H5C4.175 40.7969 3.46883 40.503 2.8815 39.9154C2.29383 39.328 2 38.6219 2 37.7969V14.7969H5V37.7969H40V40.7969Z" fill="#F26522"/>
</g>
</svg>
