<svg width="28" height="28" viewBox="0 0 28 28" fill="none" xmlns="http://www.w3.org/2000/svg">
<path d="M14.0319 0H13.9681C6.25374 0 0 6.25374 0 13.9681V14.0319C0 21.7463 6.25374 28 13.9681 28H14.0319C21.7463 28 28 21.7463 28 14.0319V13.9681C28 6.25374 21.7463 0 14.0319 0Z" fill="#FF0000"/>
<path fill-rule="evenodd" clip-rule="evenodd" d="M12.7241 17.8305C12.7074 17.8883 12.6917 17.9374 12.6789 17.9864C11.9383 20.8882 11.8559 21.5327 11.0947 22.8805C10.7317 23.5211 10.3226 24.1283 9.8704 24.7091C9.81939 24.7748 9.77132 24.8592 9.66929 24.8386C9.55746 24.815 9.54864 24.714 9.53686 24.6247C9.41522 23.7428 9.34754 22.8589 9.37697 21.9682C9.41522 20.8087 9.55845 20.4104 11.0535 14.1243C11.075 14.0282 11.0505 13.9487 11.0191 13.8624C10.6611 12.8971 10.5904 11.9171 10.9034 10.9244C11.5802 8.77997 14.0111 8.61615 14.4359 10.3849C14.6978 11.4786 14.0052 12.9109 13.4735 15.0278C13.0331 16.7739 15.0892 18.0159 16.8461 16.7406C18.4667 15.5654 19.0955 12.748 18.9758 10.7508C18.7404 6.76898 14.3741 5.90866 11.6048 7.19079C8.42934 8.65932 7.70735 12.595 9.14153 14.3941C9.32302 14.6227 9.66537 14.7629 9.60553 14.9945C9.51332 15.3545 9.4319 15.7174 9.33184 16.0755C9.25728 16.3423 8.83252 16.4394 8.56276 16.3296C8.03401 16.1157 7.59355 15.7792 7.23648 15.3358C6.01908 13.8281 5.67084 10.8459 7.28062 8.32088C9.06403 5.52411 12.3817 4.39207 15.4109 4.73541C19.0288 5.14644 21.3154 7.6185 21.7431 10.4231C21.9384 11.7003 21.7981 14.8503 20.0049 17.0771C17.9419 19.6355 14.5977 19.8052 13.0546 18.2346C12.9359 18.114 12.8408 17.9737 12.7241 17.8295V17.8305Z" fill="white"/>
</svg>
