<svg width="25" height="25" viewBox="0 0 25 25" fill="none" xmlns="http://www.w3.org/2000/svg">
<mask id="mask0_153_4521" style="mask-type:alpha" maskUnits="userSpaceOnUse" x="0" y="0" width="25" height="25">
<rect width="24.5913" height="24.5913" fill="#D9D9D9"/>
</mask>
<g mask="url(#mask0_153_4521)">
<path d="M2.45898 20.9053V3.69141H12.2955V7.3801H22.132V20.9053H2.45898ZM4.30333 19.061H6.14768V17.2166H4.30333V19.061ZM4.30333 15.1673H6.14768V13.323H4.30333V15.1673ZM4.30333 11.2737H6.14768V9.42937H4.30333V11.2737ZM4.30333 7.3801H6.14768V5.53575H4.30333V7.3801ZM8.6068 19.061H10.4511V17.2166H8.6068V19.061ZM8.6068 15.1673H10.4511V13.323H8.6068V15.1673ZM8.6068 11.2737H10.4511V9.42937H8.6068V11.2737ZM8.6068 7.3801H10.4511V5.53575H8.6068V7.3801ZM12.2955 19.061H20.2877V9.22444H12.2955V11.2737H14.1398V13.1181H12.2955V15.1673H14.1398V17.0117H12.2955V19.061ZM16.599 13.1181V11.2737H18.4433V13.1181H16.599ZM16.599 17.0117V15.1673H18.4433V17.0117H16.599Z" fill="#6B7280"/>
</g>
</svg>
