<svg width="31" height="30" viewBox="0 0 31 30" fill="none" xmlns="http://www.w3.org/2000/svg">
<path d="M9.65747 24.8314C9.63766 24.8314 9.3207 24.9007 8.7066 25.0394C5.73513 25.6733 4.14044 25.9902 3.92253 25.9902C3.58577 25.9704 3.29852 25.8268 3.06081 25.5594C2.82309 25.2919 2.72404 24.9898 2.76366 24.6531C2.76366 24.5936 3.00138 23.8607 3.47681 22.4542L4.2494 20.1067C3.81358 19.2153 3.51643 18.5616 3.35795 18.1456C3.12024 17.5314 2.95185 16.848 2.8528 16.0952C2.6349 14.7284 2.77356 13.2922 3.26881 11.7866C3.80367 10.2018 4.64559 8.78542 5.79456 7.53741C7.06239 6.17053 8.58774 5.16023 10.3706 4.50651C12.3516 3.77354 14.5208 3.53583 16.8781 3.79335C19.2355 4.0905 21.3056 4.9027 23.0885 6.22996C24.7525 7.47798 25.9708 9.03304 26.7434 10.8952C27.516 12.7573 27.7339 14.6491 27.3971 16.5707C27.0406 18.6309 26.0897 20.4732 24.5445 22.0976C23.4946 23.1871 22.2466 24.0687 20.8005 24.7422C19.2157 25.4752 17.5517 25.8813 15.8084 25.9605C13.8869 26.0596 11.9851 25.7327 10.1032 24.9799C9.86547 24.8809 9.7169 24.8314 9.65747 24.8314ZM14.1147 6.20024C12.3516 6.37853 10.7767 6.90349 9.39004 7.77512C8.08259 8.60713 7.06734 9.65705 6.34428 10.9249C5.62122 12.1927 5.2597 13.52 5.2597 14.9067C5.2795 16.3726 5.69551 17.7395 6.50771 19.0073C6.66619 19.2648 6.76029 19.4381 6.79 19.5273C6.81972 19.6164 6.83457 19.7501 6.83457 19.9284V20.1959L5.8837 23.0782H5.91342C8.48869 22.5433 9.79614 22.2759 9.83576 22.2759C9.95462 22.2759 10.2518 22.365 10.7272 22.5433C11.6385 22.8999 12.4209 23.1475 13.0747 23.2862C14.2632 23.5239 15.4816 23.5536 16.7296 23.3753C18.3342 23.1376 19.7803 22.6028 21.0679 21.7707C22.3159 20.9585 23.2965 19.9383 24.0097 18.7101C24.7228 17.4819 25.0794 16.1844 25.0794 14.8175C25.0596 13.3516 24.6436 11.955 23.8314 10.6277C23.3956 9.93439 22.8607 9.31038 22.2268 8.75571C21.3155 7.9237 20.2656 7.28978 19.077 6.85397C17.5913 6.29929 15.9372 6.08138 14.1147 6.20024Z" fill="#6B7280"/>
</svg>
