<svg width="20" height="20" viewBox="0 0 20 20" fill="none" xmlns="http://www.w3.org/2000/svg">
<mask id="mask0_214_17725" style="mask-type:alpha" maskUnits="userSpaceOnUse" x="0" y="0" width="20" height="20">
<rect width="20" height="20" fill="#D9D9D9"/>
</mask>
<g mask="url(#mask0_214_17725)">
<path d="M4.5 17C4.09722 17 3.74653 16.8507 3.44792 16.5521C3.14931 16.2535 3 15.9028 3 15.5V4.5C3 4.0875 3.14931 3.73438 3.44792 3.44063C3.74653 3.14688 4.09722 3 4.5 3H15.5C15.9125 3 16.2656 3.14688 16.5594 3.44063C16.8531 3.73438 17 4.0875 17 4.5V15.5C17 15.9028 16.8531 16.2535 16.5594 16.5521C16.2656 16.8507 15.9125 17 15.5 17H4.5ZM4.5 15.5H15.5V4.5H4.5V15.5ZM10 14.5625C11.235 13.5156 12.1549 12.542 12.7596 11.6419C13.3643 10.7417 13.6667 9.91639 13.6667 9.16583C13.6667 8.0275 13.2985 7.11806 12.5621 6.4375C11.8257 5.75694 10.975 5.41667 10.01 5.41667C9.045 5.41667 8.19097 5.75694 7.44792 6.4375C6.70486 7.11806 6.33333 8.0275 6.33333 9.16583C6.33333 9.91639 6.63889 10.7431 7.25 11.6458C7.86111 12.5486 8.77778 13.5208 10 14.5625ZM10.0023 10.1875C9.72299 10.1875 9.48958 10.091 9.30208 9.89812C9.11458 9.70535 9.02083 9.46924 9.02083 9.18979C9.02083 8.91049 9.11583 8.67708 9.30583 8.48958C9.49597 8.30208 9.72861 8.20833 10.0037 8.20833C10.279 8.20833 10.5139 8.30333 10.7083 8.49333C10.9028 8.68347 11 8.91611 11 9.19125C11 9.46653 10.9035 9.70139 10.7106 9.89583C10.5178 10.0903 10.2817 10.1875 10.0023 10.1875Z" fill="#202C4B"/>
</g>
</svg>
