<svg width="252" height="50" viewBox="0 0 252 50" fill="none" xmlns="http://www.w3.org/2000/svg">
<path d="M16 36V18H26V22H36V36H16ZM18 34H20V32H18V34ZM18 30H20V28H18V30ZM18 26H20V24H18V26ZM18 22H20V20H18V22ZM22 34H24V32H22V34ZM22 30H24V28H22V30ZM22 26H24V24H22V26ZM22 22H24V20H22V22ZM26 34H34V24H26V26H28V28H26V30H28V32H26V34ZM30 28V26H32V28H30ZM30 32V30H32V32H30Z" fill="#E70D0D"/>
<path d="M43.9084 20.0779V19.4321L48.5286 19.5314C49.1578 19.5314 49.8865 19.5149 50.7144 19.4817C51.5424 19.4486 52.3953 19.4321 53.2729 19.4321C54.3327 19.4321 55.1607 19.7136 55.7569 20.2766C56.3696 20.8231 56.6759 21.5765 56.6759 22.537C56.6759 24.0108 56.1295 25.1948 55.0365 26.089C54.341 26.6521 53.3971 27.0247 52.2048 27.2068C53.6621 27.3724 54.5563 27.5546 54.8875 27.7533C55.2352 27.952 55.6161 28.5068 56.0301 29.4175L57.4211 32.4231C57.9676 33.5988 58.3733 34.3275 58.6382 34.609C58.9198 34.8739 59.4745 35.1141 60.3025 35.3293V36H56.0549C55.6078 36 55.3098 35.9006 55.1607 35.7019C55.0282 35.5032 54.7716 34.8243 54.3907 33.6651C53.5958 31.2308 52.9831 29.7322 52.5526 29.1691C52.122 28.5896 51.3768 28.2998 50.317 28.2998C49.903 28.2998 49.6132 28.3246 49.4476 28.3743C49.1661 28.4736 48.9922 28.6889 48.926 29.0201C48.8929 29.2188 48.8763 29.5086 48.8763 29.8895C48.8763 31.4792 48.9426 32.7129 49.075 33.5906C49.1578 34.1205 49.3483 34.5014 49.6463 34.7332C49.961 34.965 50.5737 35.1637 51.4845 35.3293V36H46.5663C45.9039 36 45.5727 35.6936 45.5727 35.0809C45.5727 35.0147 45.5892 34.7994 45.6224 34.4351C45.8542 31.8518 45.9701 28.8297 45.9701 25.3687C45.9701 22.6364 45.7879 21.088 45.4236 20.7237C45.2249 20.525 44.7198 20.3097 43.9084 20.0779ZM49.8202 26.3623H49.9196C50.731 26.3623 51.3934 26.2464 51.9067 26.0145C52.3704 25.7992 52.743 25.4598 53.0245 24.9961C53.306 24.5324 53.4468 24.0191 53.4468 23.4561C53.4468 22.6446 53.1901 22.0154 52.6768 21.5683C52.18 21.1046 51.4845 20.8727 50.5903 20.8727C50.1266 20.8727 49.5967 20.9473 49.0005 21.0963C48.9343 23.1497 48.9012 25.1037 48.9012 26.9584V27.0578C48.9012 27.5049 48.9674 27.7284 49.0999 27.7284C49.3483 27.7284 49.5884 27.2731 49.8202 26.3623ZM59.4331 19.4321H69.9899C70.5032 19.4321 70.8262 19.49 70.9586 19.6059C71.1077 19.7218 71.1988 20.0034 71.2319 20.4505L71.4306 23.9032H70.8344C70.3045 22.7109 69.7912 21.9491 69.2944 21.6179C68.7976 21.2867 67.9199 21.1211 66.6614 21.1211C66.1977 21.1211 65.4774 21.1708 64.5004 21.2702L64.3762 27.0578C64.3762 27.4552 64.4424 27.6539 64.5749 27.6539C64.8233 27.6539 65.0965 27.1075 65.3946 26.0145C65.6927 26.0476 66.0404 26.0642 66.4378 26.0642C67.3155 26.0642 68.276 25.9648 69.3192 25.7661C69.3689 25.7496 69.4434 25.7413 69.5428 25.7413C69.7912 25.7413 69.9154 25.8655 69.9154 26.1139C69.9154 26.2298 69.8988 26.354 69.8657 26.4865L69.4186 28.3743C68.6568 28.424 68.0938 28.4488 67.7295 28.4488C67.3652 28.4488 66.9015 28.4322 66.3385 28.3991C65.7755 28.366 65.4277 28.3494 65.2952 28.3494C64.8647 28.3494 64.5914 28.5068 64.4755 28.8214C64.4093 28.9704 64.3762 29.3182 64.3762 29.8646C64.3762 32.0174 64.5004 33.2842 64.7488 33.6651C64.9475 33.9797 65.4443 34.137 66.2391 34.137C68.3091 34.137 69.7249 33.9632 70.4867 33.6154C71.0166 33.367 71.6293 32.5308 72.3248 31.1066H72.8961L72.1013 35.0313C72.0185 35.4784 71.9025 35.7516 71.7535 35.851C71.6045 35.9503 71.265 36 70.7351 36H62.389C61.8922 36 61.5527 35.9338 61.3706 35.8013C61.1884 35.6688 61.0974 35.4204 61.0974 35.0561C61.0974 34.9071 61.1222 34.4434 61.1719 33.6651L61.1967 33.1683C61.3954 29.9392 61.4948 27.4718 61.4948 25.7661C61.4948 22.7688 61.3458 21.1046 61.0477 20.7734C60.8655 20.5747 60.3273 20.3511 59.4331 20.1027V19.4321ZM73.1841 19.4321H77.9533C80.8181 23.4229 83.3352 26.6686 85.5045 29.1691C85.5045 24.3006 85.4134 21.6676 85.2313 21.2702C85.1153 20.939 84.9083 20.6906 84.6103 20.525C84.3122 20.3594 83.774 20.2104 82.9957 20.0779V19.4321H87.0942C87.7235 19.4321 88.0381 19.7053 88.0381 20.2518C88.0381 20.1358 88.0216 20.5167 87.9884 21.3944C87.9388 22.4376 87.8974 23.6879 87.8642 25.1451C87.8477 27.0329 87.8228 29.6245 87.7897 32.9199L87.74 36.3229H86.7713C86.6885 36.207 86.5891 36.0828 86.4732 35.9503C86.1917 35.6026 85.2147 34.253 83.5422 31.9015C83.0288 31.1729 82.0766 29.9392 80.6856 28.2004C79.3112 26.4616 78.3424 25.2776 77.7794 24.6484C77.7463 25.4432 77.7297 26.3457 77.7297 27.3559C77.7297 31.0155 77.8208 33.2014 78.003 33.9135C78.1023 34.3275 78.301 34.6255 78.5991 34.8077C78.8972 34.9899 79.4768 35.172 80.3379 35.3542V36H75.7674C75.1216 36 74.7987 35.6771 74.7987 35.0313C74.7987 34.7497 74.8152 34.4434 74.8483 34.1122C75.0967 31.6282 75.2209 28.6723 75.2209 25.2445C75.2209 22.6778 75.0885 21.2122 74.8235 20.8479C74.6414 20.5995 74.0949 20.3428 73.1841 20.0779V19.4321ZM89.8448 23.2822L91.1613 19.3824C91.7409 19.2996 92.3122 19.2582 92.8752 19.2582C93.9019 19.2582 95.7897 19.3493 98.5386 19.5314C98.787 19.548 99.0685 19.5563 99.3832 19.5563C100.128 19.5563 100.667 19.5149 100.998 19.4321C101.478 19.2996 101.95 19.0263 102.414 18.6124H103.035L101.793 21.7421C101.528 21.7752 101.254 21.7918 100.973 21.7918C100.327 21.7918 99.4411 21.7338 98.3151 21.6179C98.2488 22.9593 98.2157 25.3273 98.2157 28.722C98.2157 32.2161 98.3979 34.1619 98.7622 34.5593C99.0106 34.8408 99.6895 35.1141 100.799 35.379V36H95.856C95.2433 36 94.9369 35.6854 94.9369 35.0561C94.9369 34.8905 94.9452 34.6752 94.9617 34.4103C95.177 30.9327 95.2847 27.5049 95.2847 24.1267C95.2847 23.5306 95.2764 23.0255 95.2598 22.6115C96.6508 22.4128 97.3463 22.1561 97.3463 21.8415C97.3463 21.5269 96.7502 21.3695 95.5579 21.3695C93.2727 21.3695 91.567 22.0071 90.441 23.2822H89.8448Z" fill="#232323"/>
<path d="M114.07 24.3503H113.449C113.084 23.0586 112.786 22.1975 112.554 21.767C112.19 21.0715 111.586 20.7237 110.741 20.7237C109.615 20.7237 108.679 21.2785 107.934 22.388C107.189 23.4809 106.816 24.8553 106.816 26.5113C106.816 28.4819 107.371 30.0799 108.481 31.3053C109.59 32.5308 111.047 33.1435 112.852 33.1435C113.631 33.1435 114.616 32.9779 115.808 32.6467L116.082 33.1931L112.008 35.9503C111.66 36.1822 111.354 36.2981 111.089 36.2981C110.261 36.2981 109.367 36.058 108.406 35.5777C105.376 34.0708 103.86 31.4792 103.86 27.803C103.86 26.1636 104.208 24.6732 104.904 23.3319C105.599 21.974 106.543 20.9473 107.735 20.2518C108.994 19.5231 110.542 19.1588 112.38 19.1588C114.301 19.1588 115.262 19.4735 115.262 20.1027C115.262 20.1358 115.229 20.318 115.162 20.6492L114.07 24.3503ZM116.583 19.4321H120.806C121.402 19.4321 121.7 19.8295 121.7 20.6244C121.7 20.5912 121.667 21.4027 121.601 23.0586C121.568 23.8866 121.551 24.6235 121.551 25.2693C121.551 26.296 121.56 26.9253 121.576 27.1571C121.609 27.3724 121.675 27.4801 121.775 27.4801C122.056 27.4801 122.313 26.9336 122.545 25.8406C122.975 25.8241 123.315 25.8158 123.563 25.8158C124.11 25.8158 125.17 25.8489 126.743 25.9152C127.14 25.9317 127.521 25.94 127.885 25.94C128.597 25.94 129.036 25.8489 129.202 25.6668C129.384 25.4681 129.475 24.9713 129.475 24.1764C129.475 22.5204 129.343 21.4606 129.078 20.9969C128.912 20.6989 128.283 20.3925 127.19 20.0779V19.4321H131.313C131.959 19.4321 132.323 19.5728 132.406 19.8543C132.456 19.9702 132.481 20.169 132.481 20.4505C132.481 20.5167 132.472 20.6575 132.456 20.8727C132.39 22.7937 132.356 25.2942 132.356 28.3743C132.356 31.5372 132.448 33.4333 132.63 34.0625C132.746 34.4434 132.903 34.7083 133.102 34.8574C133.317 34.9899 133.805 35.1555 134.567 35.3542V36H130.121C129.442 36 129.102 35.6357 129.102 34.9071C129.102 34.609 129.152 33.574 129.251 31.8021C129.351 30.0302 129.401 28.6309 129.401 27.6043V27.5297C129.401 26.9501 129.334 26.6603 129.202 26.6603C128.97 26.6603 128.697 27.1985 128.382 28.2749C128.067 28.2915 127.695 28.2998 127.264 28.2998C126.254 28.2998 125.054 28.2666 123.663 28.2004C123.315 28.1838 122.975 28.1756 122.644 28.1756C122.131 28.1756 121.8 28.3163 121.651 28.5978C121.551 28.78 121.502 29.1609 121.502 29.7404C121.502 30.6015 121.56 31.7276 121.675 33.1186C121.742 33.8969 121.916 34.4103 122.197 34.6587C122.479 34.9071 123.133 35.1389 124.159 35.3542V36H119.44C118.827 36 118.463 35.8675 118.347 35.6026C118.297 35.4867 118.272 35.3128 118.272 35.0809C118.272 35.0313 118.281 34.8822 118.297 34.6338C118.529 31.2391 118.645 28.5564 118.645 26.5858C118.645 24.1516 118.604 22.537 118.521 21.7421C118.471 21.2453 118.339 20.9059 118.123 20.7237C117.908 20.5416 117.395 20.3263 116.583 20.0779V19.4321ZM141.555 19.0843H143.02C143.252 19.6308 143.832 21.0632 144.759 23.3815C146.994 29.0449 148.435 32.4811 149.081 33.6899C149.346 34.1867 149.611 34.5427 149.876 34.758C150.157 34.9567 150.621 35.1472 151.267 35.3293V36H147.293C146.696 36 146.324 35.9338 146.175 35.8013C146.026 35.6688 145.835 35.2548 145.603 34.5593L144.486 31.206L141.728 31.2805C141.646 31.2805 141.447 31.2722 141.132 31.2557C140.834 31.2557 140.561 31.2557 140.313 31.2557H139.94C139.394 31.2557 139.013 31.4461 138.797 31.827C138.367 32.6053 138.152 33.2759 138.152 33.839C138.152 34.2198 138.259 34.4931 138.475 34.6587C138.706 34.8243 139.187 35.0064 139.915 35.2051L140.387 35.3293V36H136.636C136.156 36 135.817 35.9172 135.618 35.7516C135.303 35.5032 135.146 35.1969 135.146 34.8325C135.146 33.6237 136.727 29.608 139.89 22.7854L141.108 20.1276C141.174 19.9785 141.323 19.6308 141.555 19.0843ZM141.753 23.5057C140.081 27.5463 139.245 29.7901 139.245 30.2372C139.245 30.4028 139.303 30.4856 139.418 30.4856C139.7 30.5022 140.13 30.0302 140.71 29.0698C141.008 29.0863 141.348 29.0946 141.728 29.0946C142.871 29.0946 143.442 28.8876 143.442 28.4736C143.442 28.2584 143.235 27.5711 142.821 26.412C142.772 26.2795 142.515 25.584 142.051 24.3254C142.002 24.1598 141.902 23.8866 141.753 23.5057ZM150.305 19.4321H154.204C154.701 19.4321 155.024 19.5066 155.173 19.6556C155.322 19.7881 155.397 20.053 155.397 20.4505C155.397 21.5269 155.372 23.1 155.322 25.17C155.289 26.5444 155.272 27.6622 155.272 28.5233C155.272 31.1729 155.33 32.8868 155.446 33.6651C155.529 34.1784 155.678 34.5345 155.893 34.7332C156.125 34.9153 156.639 35.1223 157.433 35.3542V36H153.012C152.317 36 151.969 35.6854 151.969 35.0561C151.969 34.8243 151.985 34.5427 152.018 34.2116C152.267 31.7607 152.391 28.3826 152.391 24.077C152.391 22.4708 152.3 21.4689 152.118 21.0715C151.952 20.6575 151.48 20.3511 150.702 20.1524L150.305 20.053V19.4321ZM157.648 19.4321H162.417C165.282 23.4229 167.799 26.6686 169.968 29.1691C169.968 24.3006 169.877 21.6676 169.695 21.2702C169.579 20.939 169.372 20.6906 169.074 20.525C168.776 20.3594 168.238 20.2104 167.46 20.0779V19.4321H171.558C172.187 19.4321 172.502 19.7053 172.502 20.2518C172.502 20.1358 172.486 20.5167 172.452 21.3944C172.403 22.4376 172.361 23.6879 172.328 25.1451C172.312 27.0329 172.287 29.6245 172.254 32.9199L172.204 36.3229H171.235C171.152 36.207 171.053 36.0828 170.937 35.9503C170.656 35.6026 169.679 34.253 168.006 31.9015C167.493 31.1729 166.541 29.9392 165.15 28.2004C163.775 26.4616 162.806 25.2776 162.243 24.6484C162.21 25.4432 162.194 26.3457 162.194 27.3559C162.194 31.0155 162.285 33.2014 162.467 33.9135C162.566 34.3275 162.765 34.6255 163.063 34.8077C163.361 34.9899 163.941 35.172 164.802 35.3542V36H160.231C159.586 36 159.263 35.6771 159.263 35.0313C159.263 34.7497 159.279 34.4434 159.312 34.1122C159.561 31.6282 159.685 28.6723 159.685 25.2445C159.685 22.6778 159.552 21.2122 159.287 20.8479C159.105 20.5995 158.559 20.3428 157.648 20.0779V19.4321Z" fill="#E70D0D"/>
</svg>
