<svg width="48" height="49" viewBox="0 0 48 49" fill="none" xmlns="http://www.w3.org/2000/svg">
<mask id="mask0_49_5298" style="mask-type:alpha" maskUnits="userSpaceOnUse" x="0" y="0" width="48" height="49">
<rect y="0.296875" width="48" height="48" fill="#6C47D9"/>
</mask>
<g mask="url(#mask0_49_5298)">
<path d="M22.5 38.2469H25.5V36.2469H28.5C28.925 36.2469 29.2813 36.103 29.569 35.8154C29.8563 35.528 30 35.1719 30 34.7469V28.2469C30 27.8219 29.8563 27.4655 29.569 27.1779C29.2813 26.8905 28.925 26.7469 28.5 26.7469H21V23.2469H30V20.2469H25.5V18.2469H22.5V20.2469H19.5C19.075 20.2469 18.7188 20.3905 18.4315 20.6779C18.1438 20.9655 18 21.3219 18 21.7469V28.2469C18 28.6719 18.1438 29.028 18.4315 29.3154C18.7188 29.603 19.075 29.7469 19.5 29.7469H27V33.2469H18V36.2469H22.5V38.2469ZM11 44.2969C10.2 44.2969 9.5 43.9969 8.9 43.3969C8.3 42.7969 8 42.0969 8 41.2969V7.29688C8 6.49688 8.3 5.79688 8.9 5.19688C9.5 4.59688 10.2 4.29688 11 4.29688H29.05L40 15.2469V41.2969C40 42.0969 39.7 42.7969 39.1 43.3969C38.5 43.9969 37.8 44.2969 37 44.2969H11ZM26.55 15.2469V7.29688H11V41.2969H37V15.2469H26.55Z" fill="#6C47D9"/>
</g>
</svg>
