<svg width="23" height="23" viewBox="0 0 23 23" fill="none" xmlns="http://www.w3.org/2000/svg">
<mask id="mask0_340_22056" style="mask-type:alpha" maskUnits="userSpaceOnUse" x="0" y="0" width="23" height="23">
<rect width="22.8382" height="22.8382" fill="#D9D9D9"/>
</mask>
<g mask="url(#mask0_340_22056)">
<path d="M3.80553 9.37234L7.39779 6.32725L10.4429 9.13445L14.2255 5.37566L19.031 9.37234V3.80553H3.80553V9.37234ZM4.75712 20.9342V19.031H2.85394V17.1278H8.56349V19.031H6.66031V20.9342H4.75712ZM10.4667 20.9342V15.2246H6.66031V13.3215H16.1762V15.2246H12.3699V20.9342H10.4667ZM16.1762 20.9342V19.031H14.273V17.1278H19.9826V19.031H18.0794V20.9342H16.1762ZM3.80553 15.2246C3.28215 15.2246 2.83411 15.0383 2.4614 14.6656C2.0887 14.2929 1.90234 13.8448 1.90234 13.3215V3.80553C1.90234 3.28215 2.0887 2.83411 2.4614 2.4614C2.83411 2.0887 3.28215 1.90234 3.80553 1.90234H19.031C19.5544 1.90234 20.0024 2.0887 20.3751 2.4614C20.7478 2.83411 20.9342 3.28215 20.9342 3.80553V13.3215C20.9342 13.8448 20.7478 14.2929 20.3751 14.6656C20.0024 15.0383 19.5544 15.2246 19.031 15.2246H18.0794V13.3215H19.031V11.8703L14.3206 7.94495L10.4905 11.7751L7.35021 8.87276L3.80553 11.8465V13.3215H4.75712V15.2246H3.80553Z" fill="#16C86F"/>
</g>
</svg>
