<svg width="10" height="10" viewBox="0 0 10 10" fill="none" xmlns="http://www.w3.org/2000/svg">
<path d="M4.24398 0.778415C5.13284 0.747551 5.85196 0.79076 6.40132 0.908041C6.97538 1.03149 7.42444 1.25062 7.74851 1.56543C8.07257 1.88023 8.29942 2.32158 8.42904 2.88946C8.5525 3.42031 8.60188 4.12091 8.57719 4.99126C8.5525 5.67642 8.4846 6.21344 8.37349 6.60232C8.23152 7.10848 7.99079 7.50353 7.65129 7.78747C7.26858 8.11462 6.72848 8.32449 6.03097 8.41708C5.69147 8.46646 5.28716 8.4927 4.81804 8.49579C4.34891 8.49887 3.93535 8.47881 3.57733 8.4356C2.8613 8.36153 2.2965 8.17018 1.88294 7.86154C1.51875 7.5776 1.25641 7.18255 1.09592 6.67639C0.966296 6.25665 0.892224 5.69494 0.873706 4.99126C0.842842 4.15795 0.887594 3.47278 1.00796 2.93576C1.12833 2.39874 1.3274 1.97282 1.60517 1.65802C1.87059 1.36173 2.22861 1.1426 2.67921 1.00063C3.08043 0.877177 3.60202 0.803105 4.24398 0.778415ZM4.72545 7.7134C5.3921 7.7134 5.9106 7.67328 6.28096 7.59303C6.68835 7.50662 7.00162 7.35384 7.22075 7.13471C7.43988 6.91558 7.59574 6.60232 7.68832 6.19493C7.76857 5.81839 7.80869 5.2968 7.80869 4.63016C7.80869 4.00054 7.77166 3.50056 7.69758 3.1302C7.61734 2.73515 7.48463 2.42806 7.29945 2.20893C7.11427 1.9898 6.85193 1.83085 6.51243 1.73209C6.20997 1.6395 5.79332 1.58086 5.26247 1.55617C4.66989 1.53148 4.15448 1.54382 3.71622 1.59321C3.16685 1.64876 2.75637 1.75987 2.48477 1.92653C2.28107 2.04998 2.1175 2.22127 1.99404 2.4404C1.87059 2.65953 1.78109 2.94502 1.72553 3.29686C1.66998 3.6487 1.6422 4.09313 1.6422 4.63016C1.6422 5.30915 1.6885 5.84463 1.78109 6.23659C1.87368 6.62855 2.02182 6.92639 2.22552 7.13008C2.4107 7.31526 2.67304 7.45415 3.01253 7.54674C3.41993 7.65785 3.9909 7.7134 4.72545 7.7134ZM4.63286 3.09316C4.55879 3.11168 4.49552 3.14872 4.44305 3.20427C4.39058 3.25982 4.35817 3.32464 4.34583 3.39871C4.33966 3.41723 4.33657 3.56537 4.33657 3.84314V4.24128H3.93843C3.66066 4.24128 3.51252 4.24436 3.494 4.25054C3.36438 4.2814 3.27487 4.35239 3.22549 4.46349C3.17611 4.5746 3.17457 4.68571 3.22086 4.79682C3.26716 4.90793 3.3582 4.97891 3.494 5.00977C3.51252 5.01595 3.66066 5.01903 3.93843 5.01903H4.33657V5.41717C4.33657 5.69494 4.33966 5.84308 4.34583 5.8616C4.37669 5.9974 4.44768 6.08845 4.55879 6.13474C4.66989 6.18104 4.781 6.17949 4.89211 6.13011C5.00322 6.08073 5.0742 5.99123 5.10507 5.8616C5.11124 5.84308 5.11433 5.69494 5.11433 5.41717V5.01903H5.51246C5.79023 5.01903 5.93837 5.01595 5.95689 5.00977C6.09269 4.97891 6.18374 4.90793 6.23003 4.79682C6.27633 4.68571 6.27479 4.5746 6.2254 4.46349C6.17602 4.35239 6.08652 4.2814 5.95689 4.25054C5.93837 4.24436 5.79023 4.24128 5.51246 4.24128H5.11433V3.84314C5.11433 3.56537 5.11124 3.41723 5.10507 3.39871C5.08038 3.29377 5.02019 3.21044 4.92452 3.14872C4.82884 3.08699 4.73162 3.06847 4.63286 3.09316Z" fill="white"/>
</svg>
