<svg width="23" height="23" viewBox="0 0 23 23" fill="none" xmlns="http://www.w3.org/2000/svg">
<mask id="mask0_340_22032" style="mask-type:alpha" maskUnits="userSpaceOnUse" x="0" y="0" width="23" height="23">
<rect width="22.8382" height="22.8382" fill="#D9D9D9"/>
</mask>
<g mask="url(#mask0_340_22032)">
<path d="M3.80859 20.9342V3.80553C3.80859 3.28215 3.99495 2.83411 4.36765 2.4614C4.74036 2.0887 5.1884 1.90234 5.71178 1.90234H17.1309C17.6543 1.90234 18.1023 2.0887 18.475 2.4614C18.8477 2.83411 19.0341 3.28215 19.0341 3.80553V20.9342H3.80859ZM5.71178 19.031H17.1309V3.80553H5.71178V19.031ZM14.7519 12.8457C15.1484 12.8457 15.4854 12.7069 15.763 12.4293C16.0405 12.1518 16.1793 11.8148 16.1793 11.4183C16.1793 11.0218 16.0405 10.6847 15.763 10.4072C15.4854 10.1297 15.1484 9.99088 14.7519 9.99088C14.3554 9.99088 14.0184 10.1297 13.7408 10.4072C13.4633 10.6847 13.3245 11.0218 13.3245 11.4183C13.3245 11.8148 13.4633 12.1518 13.7408 12.4293C14.0184 12.7069 14.3554 12.8457 14.7519 12.8457Z" fill="#AB47BC"/>
</g>
</svg>
