<svg width="28" height="28" viewBox="0 0 28 28" fill="none" xmlns="http://www.w3.org/2000/svg">
<path d="M27.998 14.0005C27.998 21.0714 22.7569 26.917 15.9481 27.8656C15.3115 27.9539 14.6602 28 13.999 28C13.2358 28 12.4864 27.9392 11.7566 27.8215C5.09109 26.7483 0 20.9684 0 14.0005C0 6.26844 6.26822 0 14 0C21.7318 0 28 6.26844 28 14.0005H27.998Z" fill="#1C1C1B"/>
<path d="M5.68085 6.17578L12.1374 14.8084L5.64062 21.8273H7.10321L12.7917 15.6824L17.3874 21.8273H22.3637L15.5442 12.7091L21.5917 6.17578H20.1291L14.8909 11.835L10.6581 6.17578H5.68182H5.68085ZM7.83106 7.25289H10.1167L20.2115 20.7501H17.9259L7.83106 7.25289Z" fill="white"/>
</svg>
