<svg width="28" height="28" viewBox="0 0 28 28" fill="none" xmlns="http://www.w3.org/2000/svg">
<path d="M14.0319 0H13.9681C6.25374 0 0 6.25374 0 13.9681V14.0319C0 21.7463 6.25374 28 13.9681 28H14.0319C21.7463 28 28 21.7463 28 14.0319V13.9681C28 6.25374 21.7463 0 14.0319 0Z" fill="#00E510"/>
<path d="M16.7265 18.0962C13.143 18.0962 10.2275 15.1798 10.2266 11.5963C10.2275 10.6879 10.9672 9.94922 11.8736 9.94922C11.9668 9.94922 12.059 9.95707 12.1473 9.97276C12.3415 10.0051 12.526 10.0709 12.6957 10.1699C12.7202 10.1847 12.7369 10.2082 12.7408 10.2357L13.1195 12.6224C13.1244 12.6508 13.1155 12.6783 13.0969 12.6989C12.888 12.9304 12.6211 13.0972 12.3239 13.1806L12.1807 13.2208L12.2346 13.3591C12.7231 14.603 13.7179 15.5967 14.9627 16.0872L15.101 16.1421L15.1412 15.9989C15.2246 15.7017 15.3914 15.4348 15.6229 15.2259C15.6396 15.2102 15.6622 15.2023 15.6847 15.2023C15.6896 15.2023 15.6945 15.2023 15.7004 15.2033L18.0871 15.582C18.1156 15.5869 18.1391 15.6026 18.1538 15.6271C18.2519 15.7968 18.3177 15.9822 18.351 16.1765C18.3667 16.2628 18.3736 16.354 18.3736 16.4492C18.3736 17.3566 17.6349 18.0952 16.7265 18.0962Z" fill="#FDFDFD"/>
<path d="M23.08 13.2139C22.8867 11.0302 21.8861 9.00451 20.2626 7.51049C18.6293 6.00763 16.5104 5.17969 14.2943 5.17969C9.43065 5.17969 5.4734 9.13694 5.4734 14.0006C5.4734 15.633 5.92366 17.2231 6.77613 18.6083L4.875 22.8167L10.962 22.1682C12.0204 22.6018 13.1407 22.8216 14.2934 22.8216C14.5965 22.8216 14.9074 22.8059 15.2194 22.7735C15.4941 22.7441 15.7717 22.7009 16.0444 22.646C20.1174 21.8229 23.0907 18.208 23.1143 14.0477V14.0006C23.1143 13.7358 23.1025 13.4709 23.079 13.2139H23.08ZM11.1964 20.3211L7.82873 20.6801L8.83423 18.4523L8.63312 18.1825C8.61841 18.1629 8.6037 18.1433 8.58702 18.1207C7.71395 16.9151 7.25288 15.4907 7.25288 14.0016C7.25288 10.1189 10.4116 6.96016 14.2943 6.96016C17.9318 6.96016 21.015 9.79812 21.3122 13.4209C21.3279 13.6151 21.3368 13.8103 21.3368 14.0026C21.3368 14.0575 21.3358 14.1115 21.3348 14.1694C21.2602 17.4174 18.9912 20.1759 15.8168 20.8782C15.5745 20.9322 15.3263 20.9734 15.0791 20.9999C14.8221 21.0293 14.5582 21.044 14.2963 21.044C13.3634 21.044 12.457 20.8635 11.6006 20.5065C11.5054 20.4682 11.4122 20.427 11.3249 20.3848L11.1974 20.323L11.1964 20.3211Z" fill="#FDFDFD"/>
</svg>
