<svg width="11" height="11" viewBox="0 0 11 11" fill="none" xmlns="http://www.w3.org/2000/svg">
<path d="M2.95343 2.10403C2.96008 2.10403 2.98002 2.10403 3.01326 2.10403C3.21933 2.09738 3.39549 2.09405 3.54174 2.09405L4.07021 2.10403C4.20981 2.1705 4.30453 2.25526 4.35439 2.35829C4.40425 2.46133 4.40425 2.56436 4.35439 2.6674C4.30453 2.77044 4.20981 2.85519 4.07021 2.92167H3.36225C3.18942 2.92831 3.08306 2.9333 3.04317 2.93662C3.00329 2.93995 2.96341 2.9549 2.92352 2.98149C2.89693 2.99479 2.86702 3.01972 2.83378 3.05628C2.80054 3.09284 2.77728 3.12441 2.76398 3.151C2.74404 3.19754 2.73241 3.24739 2.72908 3.30057C2.72576 3.35375 2.72077 3.50997 2.71412 3.76922V4.27775C2.66759 4.36417 2.63103 4.424 2.60444 4.45723C2.55791 4.51041 2.49808 4.54698 2.42496 4.56692C2.20559 4.63339 2.02943 4.537 1.89648 4.27775V3.5C1.89648 3.30057 1.89815 3.17593 1.90147 3.12608C1.90479 3.07622 1.91975 3.01473 1.94634 2.94161C2.01946 2.71559 2.14743 2.5278 2.33023 2.37823C2.51304 2.22867 2.72077 2.13726 2.95343 2.10403ZM6.98181 2.22368C7.02834 2.17715 7.07155 2.14557 7.11143 2.12895C7.15132 2.11233 7.22112 2.1007 7.32083 2.09405C7.3873 2.09405 7.53355 2.09405 7.75956 2.09405C8.00552 2.09405 8.17503 2.09738 8.2681 2.10403C8.42099 2.12397 8.55394 2.16053 8.66694 2.21371C8.77995 2.26689 8.89296 2.35331 9.00597 2.47296C9.14556 2.62585 9.24528 2.78872 9.3051 2.96155C9.33169 3.03467 9.34665 3.09616 9.34997 3.14602C9.3533 3.19587 9.35496 3.31719 9.35496 3.50997V4.27775C9.31507 4.35752 9.28516 4.4107 9.26522 4.43729C9.22533 4.48382 9.1788 4.52038 9.12562 4.54698C9.01926 4.59351 8.91456 4.59849 8.81153 4.56193C8.70849 4.52537 8.63038 4.45391 8.5772 4.34755L8.53732 4.28772V3.5698C8.53067 3.39696 8.52569 3.2906 8.52236 3.25072C8.51904 3.21083 8.50408 3.17095 8.47749 3.13106C8.4642 3.10447 8.43927 3.07456 8.40271 3.04132C8.36615 3.00808 8.33457 2.98482 8.30798 2.97152C8.26145 2.95158 8.21159 2.93995 8.15841 2.93662C8.10523 2.9333 7.94902 2.92831 7.68976 2.92167H7.18123C7.01505 2.83525 6.91201 2.73221 6.87212 2.61256C6.85218 2.52614 6.86215 2.4364 6.90204 2.34333C6.92863 2.29015 6.95522 2.25027 6.98181 2.22368ZM1.89648 7.38877C1.96296 7.24918 2.04771 7.15445 2.15075 7.10459C2.25379 7.05474 2.35516 7.05308 2.45487 7.09961C2.55459 7.14614 2.641 7.24253 2.71412 7.38877V8.09673C2.72077 8.26956 2.72576 8.37592 2.72908 8.41581C2.73241 8.45569 2.74736 8.49558 2.77395 8.53546C2.78725 8.56205 2.81217 8.59197 2.84874 8.62521C2.8853 8.65844 2.91687 8.68171 2.94346 8.695C2.99 8.71495 3.03985 8.72658 3.09303 8.7299C3.14621 8.73323 3.30243 8.73821 3.56168 8.74486H4.07021C4.2231 8.81798 4.32115 8.90938 4.36436 9.01907C4.40757 9.12875 4.40092 9.23345 4.34442 9.33316C4.28792 9.43287 4.19651 9.50932 4.07021 9.5625H3.30243C3.10965 9.5625 2.98833 9.56084 2.93848 9.55751C2.88862 9.55419 2.82713 9.53923 2.75401 9.51264C2.62106 9.46611 2.49476 9.39964 2.3751 9.31322C2.16903 9.15368 2.02611 8.95093 1.94634 8.70497C1.91975 8.63185 1.90479 8.57036 1.90147 8.52051C1.89815 8.47065 1.89648 8.34933 1.89648 8.15656V7.93719V7.38877ZM8.82648 7.09961C8.76001 7.1262 8.71514 7.15113 8.69187 7.17439C8.66861 7.19766 8.61709 7.26579 8.53732 7.3788V8.09673C8.53067 8.26956 8.52569 8.37592 8.52236 8.41581C8.51904 8.45569 8.50408 8.49558 8.47749 8.53546C8.4642 8.56205 8.43927 8.59197 8.40271 8.62521C8.36615 8.65844 8.33457 8.68171 8.30798 8.695C8.26145 8.71495 8.21159 8.72658 8.15841 8.7299C8.10523 8.73323 7.94902 8.73821 7.68976 8.74486H7.18123C7.02834 8.81798 6.93029 8.90938 6.88708 9.01907C6.84387 9.12875 6.85052 9.23345 6.90702 9.33316C6.96353 9.43287 7.05493 9.50932 7.18123 9.5625H7.72965C8.10191 9.5625 8.30466 9.55918 8.33789 9.55253C8.5905 9.49935 8.80987 9.38136 8.996 9.19855C9.18212 9.01574 9.29846 8.79804 9.34499 8.54544C9.35164 8.5122 9.35496 8.30945 9.35496 7.93719V7.38877C9.30843 7.29571 9.26522 7.22923 9.22533 7.18935C9.15221 7.11623 9.06579 7.07967 8.96608 7.07967C8.9262 7.07967 8.88299 7.08631 8.83646 7.09961H8.82648Z" fill="#6B7280"/>
</svg>
